<?xml version="1.0" encoding="utf-8"?>
<!-- Generator: Adobe Illustrator 21.0.2, SVG Export Plug-In . SVG Version: 6.00 Build 0)  -->
<svg version="1.1" id="Capa_1" xmlns="http://www.w3.org/2000/svg" xmlns:xlink="http://www.w3.org/1999/xlink" x="0px" y="0px"
	 viewBox="0 0 490 22" style="enable-background:new 0 0 490 22;" xml:space="preserve">
<style type="text/css">
	.st0{enable-background:new    ;}
	.st1{fill:#96CBF7;}
	.st2{fill:#C6C5FE;}
	.st3{fill:#A8FF60;}
</style>
<g class="st0">
	<path class="st1" d="M2,10.7l6.4-4.3V8l-5,3.3v0.1l5,3.3v1.6L2,12V10.7z"/>
	<path class="st1" d="M11.5,4.9h4.4v9.2c0,0.6,0.1,1,0.4,1.2s0.7,0.4,1.1,0.4c0.2,0,0.5,0,0.7-0.1c0.2-0.1,0.5-0.1,0.8-0.3l0.4,1.3
		c-0.2,0.1-0.4,0.1-0.6,0.2s-0.4,0.1-0.5,0.1c-0.2,0-0.4,0.1-0.6,0.1s-0.4,0-0.7,0c-0.9,0-1.6-0.3-2.1-0.8c-0.5-0.5-0.7-1.3-0.7-2.3
		V6.3h-2.7V4.9z"/>
	<path class="st1" d="M21.9,8.7h5.4V17h-1.7v-7h-3.7V8.7z M26.3,7.1c-0.4,0-0.7-0.1-0.9-0.3C25.2,6.6,25,6.3,25,5.9
		c0-0.4,0.1-0.7,0.4-0.9c0.2-0.2,0.5-0.3,0.9-0.3S27,4.8,27.2,5c0.2,0.2,0.4,0.5,0.4,0.9c0,0.4-0.1,0.7-0.4,0.9
		C27,7,26.7,7.1,26.3,7.1z"/>
	<path class="st1" d="M32.1,8.7h1.4l0.1,1.3h0.1c0.4-0.4,0.9-0.8,1.4-1.1c0.5-0.3,1.1-0.5,1.7-0.5c1,0,1.7,0.3,2.1,0.9
		c0.5,0.6,0.7,1.4,0.7,2.5V17h-1.7v-4.9c0-0.7-0.1-1.3-0.4-1.6s-0.7-0.5-1.3-0.5c-0.4,0-0.8,0.1-1.2,0.3c-0.4,0.2-0.7,0.6-1.2,1V17
		h-1.7V8.7z"/>
	<path class="st1" d="M42.5,4.9h1.7v7.9h0.1l4.1-4.1h1.9L47,12l3.7,5h-1.9l-2.8-3.9l-1.8,1.7V17h-1.7V4.9z"/>
</g>
<g class="st0">
	<path class="st2" d="M63.5,8.7h1.4l0.1,1.9h0.1c0.4-0.7,1-1.2,1.6-1.6s1.3-0.6,2-0.6c0.3,0,0.6,0,0.9,0.1c0.2,0.1,0.5,0.1,0.8,0.3
		L70,10.3c-0.3-0.1-0.5-0.2-0.7-0.2c-0.2,0-0.5-0.1-0.8-0.1c-0.6,0-1.2,0.2-1.7,0.5c-0.6,0.3-1.1,0.9-1.5,1.8V17h-1.7V8.7z"/>
	<path class="st2" d="M72.5,12.9c0-0.7,0.1-1.3,0.4-1.8c0.2-0.5,0.6-1,1-1.4c0.4-0.4,0.9-0.7,1.4-0.9c0.5-0.2,1-0.3,1.6-0.3
		c0.6,0,1.2,0.1,1.6,0.3c0.5,0.2,0.9,0.5,1.2,0.8c0.3,0.3,0.6,0.8,0.7,1.2c0.2,0.5,0.3,1,0.3,1.6c0,0.2,0,0.3,0,0.5
		c0,0.2,0,0.3-0.1,0.4h-6.3c0.1,0.8,0.4,1.5,0.9,1.9c0.5,0.5,1.2,0.7,2.1,0.7c0.5,0,0.9-0.1,1.3-0.2c0.4-0.1,0.8-0.3,1.1-0.5
		l0.6,1.1c-0.4,0.3-0.9,0.5-1.5,0.7c-0.5,0.2-1.1,0.3-1.8,0.3c-0.6,0-1.2-0.1-1.8-0.3c-0.5-0.2-1-0.5-1.4-0.9
		c-0.4-0.4-0.7-0.8-1-1.4C72.6,14.1,72.5,13.5,72.5,12.9z M79,12.1c0-0.7-0.2-1.3-0.6-1.7c-0.4-0.4-0.9-0.6-1.6-0.6
		c-0.6,0-1.2,0.2-1.7,0.6c-0.5,0.4-0.8,1-0.9,1.7H79z"/>
	<path class="st2" d="M82.9,4.9h4.4v9.2c0,0.6,0.1,1,0.4,1.2s0.7,0.4,1.1,0.4c0.2,0,0.5,0,0.7-0.1c0.2-0.1,0.5-0.1,0.8-0.3l0.4,1.3
		c-0.2,0.1-0.4,0.1-0.6,0.2s-0.4,0.1-0.5,0.1c-0.2,0-0.4,0.1-0.6,0.1s-0.4,0-0.7,0c-0.9,0-1.6-0.3-2.1-0.8c-0.5-0.5-0.7-1.3-0.7-2.3
		V6.3h-2.7V4.9z"/>
	<path class="st2" d="M93.2,8.9h7.4v1.2h-7.4V8.9z M93.2,12.6h7.4v1.2h-7.4V12.6z"/>
</g>
<g class="st0">
	<path class="st3" d="M106.5,6.1c-0.5,0.3-1,0.7-1.3,1.1c-0.3,0.4-0.5,0.9-0.5,1.5c0.1-0.1,0.3-0.1,0.4-0.1c0.4,0,0.7,0.1,0.9,0.4
		c0.2,0.2,0.4,0.6,0.4,0.9c0,0.4-0.1,0.8-0.4,1c-0.2,0.3-0.6,0.4-1,0.4c-0.5,0-0.9-0.2-1.2-0.6c-0.3-0.4-0.5-0.9-0.5-1.6
		c0-0.9,0.2-1.6,0.7-2.3c0.4-0.7,1.1-1.2,1.9-1.6L106.5,6.1z M110.5,6.1c-0.5,0.3-1,0.7-1.3,1.1c-0.3,0.4-0.5,0.9-0.5,1.5
		c0.1-0.1,0.3-0.1,0.4-0.1c0.4,0,0.7,0.1,0.9,0.4c0.2,0.2,0.4,0.6,0.4,0.9c0,0.4-0.1,0.8-0.4,1c-0.2,0.3-0.6,0.4-1,0.4
		c-0.5,0-0.9-0.2-1.2-0.6c-0.3-0.4-0.5-0.9-0.5-1.6c0-0.9,0.2-1.6,0.7-2.3c0.4-0.7,1.1-1.2,1.9-1.6L110.5,6.1z"/>
	<path class="st3" d="M114.1,14.8c0.5,0.3,1,0.6,1.5,0.8c0.5,0.2,1.1,0.3,1.8,0.3c0.7,0,1.2-0.1,1.6-0.3c0.3-0.2,0.5-0.5,0.5-0.8
		c0-0.3-0.2-0.6-0.6-0.8c-0.4-0.2-1.1-0.5-2-0.7c-0.4-0.1-0.8-0.2-1.2-0.4c-0.4-0.1-0.7-0.3-1-0.5s-0.5-0.4-0.7-0.7
		c-0.2-0.2-0.3-0.5-0.3-0.8c0-0.4,0.1-0.7,0.2-1c0.2-0.3,0.4-0.5,0.7-0.8c0.3-0.2,0.7-0.4,1.1-0.5c0.4-0.1,1-0.2,1.5-0.2
		c0.7,0,1.3,0.1,1.9,0.3c0.6,0.2,1.1,0.5,1.5,0.8l-0.8,1.1c-0.4-0.2-0.8-0.5-1.2-0.6c-0.4-0.2-0.9-0.2-1.4-0.2
		c-0.7,0-1.2,0.1-1.5,0.3c-0.3,0.2-0.4,0.5-0.4,0.7c0,0.3,0.2,0.6,0.7,0.8c0.5,0.2,1,0.4,1.8,0.6c1,0.3,1.8,0.6,2.4,0.9
		s0.8,0.9,0.8,1.5c0,0.4-0.1,0.7-0.3,1c-0.2,0.3-0.4,0.6-0.7,0.8c-0.3,0.2-0.7,0.4-1.2,0.5c-0.5,0.1-1,0.2-1.6,0.2
		c-0.8,0-1.5-0.1-2.2-0.4s-1.3-0.6-1.8-0.9L114.1,14.8z"/>
	<path class="st3" d="M125.8,10h-2.3V8.8l2.3-0.1l0.2-2.3h1.4v2.3h3.9V10h-3.9v3.7c0,0.7,0.1,1.2,0.4,1.6c0.3,0.4,0.8,0.5,1.6,0.5
		c0.4,0,0.7,0,1-0.1c0.3-0.1,0.6-0.2,0.9-0.3l0.3,1.2c-0.4,0.1-0.8,0.2-1.2,0.3c-0.5,0.1-0.9,0.1-1.4,0.1c-0.6,0-1.1-0.1-1.6-0.3
		c-0.4-0.2-0.8-0.4-1-0.7c-0.3-0.3-0.4-0.7-0.6-1.1c-0.1-0.4-0.2-0.9-0.2-1.4V10z"/>
	<path class="st3" d="M134.4,19.1c0.1,0,0.2,0,0.4,0c0.6,0,1-0.2,1.3-0.5c0.3-0.3,0.6-0.7,0.8-1.1l0.2-0.6l-3.8-8.3h1.7l1.9,4.3
		c0.2,0.4,0.3,0.8,0.5,1.2c0.2,0.4,0.3,0.8,0.5,1.2h0.1c0.1-0.4,0.3-0.8,0.4-1.2c0.1-0.4,0.3-0.8,0.4-1.2l1.6-4.3h1.6l-3.6,8.8
		c-0.2,0.4-0.4,0.8-0.6,1.2c-0.2,0.4-0.5,0.7-0.8,0.9s-0.6,0.5-1,0.6s-0.8,0.2-1.3,0.2c-0.2,0-0.4,0-0.6,0s-0.4-0.1-0.5-0.1l0.3-1.3
		C134.2,19,134.3,19.1,134.4,19.1z"/>
	<path class="st3" d="M144.1,4.9h4.4v9.2c0,0.6,0.1,1,0.4,1.2s0.7,0.4,1.1,0.4c0.2,0,0.5,0,0.7-0.1c0.2-0.1,0.5-0.1,0.8-0.3l0.4,1.3
		c-0.2,0.1-0.4,0.1-0.6,0.2s-0.4,0.1-0.5,0.1c-0.2,0-0.4,0.1-0.6,0.1s-0.4,0-0.7,0c-0.9,0-1.6-0.3-2.1-0.8c-0.5-0.5-0.7-1.3-0.7-2.3
		V6.3h-2.7V4.9z"/>
	<path class="st3" d="M154.1,12.9c0-0.7,0.1-1.3,0.4-1.8c0.2-0.5,0.6-1,1-1.4c0.4-0.4,0.9-0.7,1.4-0.9c0.5-0.2,1-0.3,1.6-0.3
		c0.6,0,1.2,0.1,1.6,0.3c0.5,0.2,0.9,0.5,1.2,0.8c0.3,0.3,0.6,0.8,0.7,1.2c0.2,0.5,0.3,1,0.3,1.6c0,0.2,0,0.3,0,0.5
		c0,0.2,0,0.3-0.1,0.4h-6.3c0.1,0.8,0.4,1.5,0.9,1.9c0.5,0.5,1.2,0.7,2.1,0.7c0.5,0,0.9-0.1,1.3-0.2c0.4-0.1,0.8-0.3,1.1-0.5
		l0.6,1.1c-0.4,0.3-0.9,0.5-1.5,0.7c-0.5,0.2-1.1,0.3-1.8,0.3c-0.6,0-1.2-0.1-1.8-0.3c-0.5-0.2-1-0.5-1.4-0.9
		c-0.4-0.4-0.7-0.8-1-1.4C154.2,14.1,154.1,13.5,154.1,12.9z M160.6,12.1c0-0.7-0.2-1.3-0.6-1.7c-0.4-0.4-0.9-0.6-1.6-0.6
		c-0.6,0-1.2,0.2-1.7,0.6c-0.5,0.4-0.8,1-0.9,1.7H160.6z"/>
	<path class="st3" d="M165.1,14.8c0.5,0.3,1,0.6,1.5,0.8c0.5,0.2,1.1,0.3,1.8,0.3c0.7,0,1.2-0.1,1.6-0.3c0.3-0.2,0.5-0.5,0.5-0.8
		c0-0.3-0.2-0.6-0.6-0.8c-0.4-0.2-1.1-0.5-2-0.7c-0.4-0.1-0.8-0.2-1.2-0.4c-0.4-0.1-0.7-0.3-1-0.5s-0.5-0.4-0.7-0.7
		c-0.2-0.2-0.3-0.5-0.3-0.8c0-0.4,0.1-0.7,0.2-1c0.2-0.3,0.4-0.5,0.7-0.8c0.3-0.2,0.7-0.4,1.1-0.5c0.4-0.1,1-0.2,1.5-0.2
		c0.7,0,1.3,0.1,1.9,0.3c0.6,0.2,1.1,0.5,1.5,0.8l-0.8,1.1c-0.4-0.2-0.8-0.5-1.2-0.6c-0.4-0.2-0.9-0.2-1.4-0.2
		c-0.7,0-1.2,0.1-1.5,0.3c-0.3,0.2-0.4,0.5-0.4,0.7c0,0.3,0.2,0.6,0.7,0.8c0.5,0.2,1,0.4,1.8,0.6c1,0.3,1.8,0.6,2.4,0.9
		s0.8,0.9,0.8,1.5c0,0.4-0.1,0.7-0.3,1c-0.2,0.3-0.4,0.6-0.7,0.8c-0.3,0.2-0.7,0.4-1.2,0.5c-0.5,0.1-1,0.2-1.6,0.2
		c-0.8,0-1.5-0.1-2.2-0.4s-1.3-0.6-1.8-0.9L165.1,14.8z"/>
	<path class="st3" d="M174.9,4.9h1.7v3.2l-0.1,1.9c0.4-0.4,0.9-0.8,1.4-1.1c0.5-0.3,1.1-0.4,1.7-0.4c1,0,1.7,0.3,2.1,0.9
		c0.5,0.6,0.7,1.4,0.7,2.5V17h-1.7v-4.9c0-0.7-0.1-1.3-0.4-1.6s-0.7-0.5-1.3-0.5c-0.4,0-0.8,0.1-1.2,0.3c-0.4,0.2-0.7,0.6-1.2,1V17
		h-1.7V4.9z"/>
	<path class="st3" d="M184.7,12.9c0-0.7,0.1-1.3,0.4-1.8c0.2-0.5,0.6-1,1-1.4c0.4-0.4,0.9-0.7,1.4-0.9c0.5-0.2,1-0.3,1.6-0.3
		c0.6,0,1.2,0.1,1.6,0.3c0.5,0.2,0.9,0.5,1.2,0.8c0.3,0.3,0.6,0.8,0.7,1.2c0.2,0.5,0.3,1,0.3,1.6c0,0.2,0,0.3,0,0.5
		c0,0.2,0,0.3-0.1,0.4h-6.3c0.1,0.8,0.4,1.5,0.9,1.9c0.5,0.5,1.2,0.7,2.1,0.7c0.5,0,0.9-0.1,1.3-0.2c0.4-0.1,0.8-0.3,1.1-0.5
		l0.6,1.1c-0.4,0.3-0.9,0.5-1.5,0.7c-0.5,0.2-1.1,0.3-1.8,0.3c-0.6,0-1.2-0.1-1.8-0.3c-0.5-0.2-1-0.5-1.4-0.9
		c-0.4-0.4-0.7-0.8-1-1.4C184.8,14.1,184.7,13.5,184.7,12.9z M191.2,12.1c0-0.7-0.2-1.3-0.6-1.7c-0.4-0.4-0.9-0.6-1.6-0.6
		c-0.6,0-1.2,0.2-1.7,0.6c-0.5,0.4-0.8,1-0.9,1.7H191.2z"/>
	<path class="st3" d="M194.9,12.9c0-0.7,0.1-1.3,0.4-1.8c0.2-0.5,0.6-1,1-1.4c0.4-0.4,0.9-0.7,1.4-0.9c0.5-0.2,1-0.3,1.6-0.3
		c0.6,0,1.2,0.1,1.6,0.3c0.5,0.2,0.9,0.5,1.2,0.8c0.3,0.3,0.6,0.8,0.7,1.2c0.2,0.5,0.3,1,0.3,1.6c0,0.2,0,0.3,0,0.5
		c0,0.2,0,0.3-0.1,0.4h-6.3c0.1,0.8,0.4,1.5,0.9,1.9c0.5,0.5,1.2,0.7,2.1,0.7c0.5,0,0.9-0.1,1.3-0.2c0.4-0.1,0.8-0.3,1.1-0.5
		l0.6,1.1c-0.4,0.3-0.9,0.5-1.5,0.7c-0.5,0.2-1.1,0.3-1.8,0.3c-0.6,0-1.2-0.1-1.8-0.3c-0.5-0.2-1-0.5-1.4-0.9
		c-0.4-0.4-0.7-0.8-1-1.4C195,14.1,194.9,13.5,194.9,12.9z M201.4,12.1c0-0.7-0.2-1.3-0.6-1.7c-0.4-0.4-0.9-0.6-1.6-0.6
		c-0.6,0-1.2,0.2-1.7,0.6c-0.5,0.4-0.8,1-0.9,1.7H201.4z"/>
	<path class="st3" d="M207.4,10h-2.3V8.8l2.3-0.1l0.2-2.3h1.4v2.3h3.9V10H209v3.7c0,0.7,0.1,1.2,0.4,1.6c0.3,0.4,0.8,0.5,1.6,0.5
		c0.4,0,0.7,0,1-0.1c0.3-0.1,0.6-0.2,0.9-0.3l0.3,1.2c-0.4,0.1-0.8,0.2-1.2,0.3c-0.5,0.1-0.9,0.1-1.4,0.1c-0.6,0-1.1-0.1-1.6-0.3
		c-0.4-0.2-0.8-0.4-1-0.7c-0.3-0.3-0.4-0.7-0.6-1.1c-0.1-0.4-0.2-0.9-0.2-1.4V10z"/>
	<path class="st3" d="M215.8,10.4c0.5-0.3,1-0.7,1.3-1.1c0.3-0.4,0.5-0.9,0.5-1.5c-0.1,0.1-0.3,0.1-0.4,0.1c-0.4,0-0.7-0.1-0.9-0.4
		c-0.2-0.2-0.4-0.6-0.4-1c0-0.4,0.1-0.8,0.4-1c0.2-0.3,0.6-0.4,1-0.4c0.5,0,0.9,0.2,1.2,0.6c0.3,0.4,0.5,0.9,0.5,1.6
		c0,0.9-0.2,1.6-0.7,2.3c-0.4,0.7-1.1,1.2-1.9,1.6L215.8,10.4z M219.8,10.4c0.5-0.3,1-0.7,1.3-1.1c0.3-0.4,0.5-0.9,0.5-1.5
		c-0.1,0.1-0.3,0.1-0.4,0.1c-0.4,0-0.7-0.1-0.9-0.4s-0.4-0.6-0.4-1c0-0.4,0.1-0.8,0.4-1c0.2-0.3,0.6-0.4,1-0.4
		c0.5,0,0.9,0.2,1.2,0.6c0.3,0.4,0.5,0.9,0.5,1.6c0,0.9-0.2,1.6-0.7,2.3c-0.4,0.7-1.1,1.2-1.9,1.6L219.8,10.4z"/>
</g>
<g class="st0">
	<path class="st2" d="M236.1,4.9h1.7v3.2l-0.1,1.9c0.4-0.4,0.9-0.8,1.4-1.1c0.5-0.3,1.1-0.4,1.7-0.4c1,0,1.7,0.3,2.1,0.9
		c0.5,0.6,0.7,1.4,0.7,2.5V17h-1.7v-4.9c0-0.7-0.1-1.3-0.4-1.6s-0.7-0.5-1.3-0.5c-0.4,0-0.8,0.1-1.2,0.3s-0.7,0.6-1.2,1V17h-1.7V4.9
		z"/>
	<path class="st2" d="M247.1,8.7h1.4l0.1,1.9h0.1c0.4-0.7,1-1.2,1.6-1.6c0.6-0.4,1.3-0.6,2-0.6c0.3,0,0.6,0,0.9,0.1s0.5,0.1,0.8,0.3
		l-0.4,1.4c-0.3-0.1-0.5-0.2-0.7-0.2c-0.2,0-0.5-0.1-0.8-0.1c-0.6,0-1.2,0.2-1.7,0.5c-0.6,0.3-1.1,0.9-1.5,1.8V17h-1.7V8.7z"/>
	<path class="st2" d="M256.1,12.9c0-0.7,0.1-1.3,0.4-1.8c0.2-0.5,0.6-1,1-1.4s0.9-0.7,1.4-0.9s1-0.3,1.6-0.3c0.6,0,1.2,0.1,1.6,0.3
		c0.5,0.2,0.9,0.5,1.2,0.8c0.3,0.3,0.6,0.8,0.7,1.2c0.2,0.5,0.3,1,0.3,1.6c0,0.2,0,0.3,0,0.5c0,0.2,0,0.3-0.1,0.4h-6.3
		c0.1,0.8,0.4,1.5,0.9,1.9c0.5,0.5,1.2,0.7,2.1,0.7c0.5,0,0.9-0.1,1.3-0.2c0.4-0.1,0.8-0.3,1.1-0.5l0.6,1.1
		c-0.4,0.3-0.9,0.5-1.5,0.7c-0.5,0.2-1.1,0.3-1.8,0.3c-0.6,0-1.2-0.1-1.8-0.3s-1-0.5-1.4-0.9s-0.7-0.8-1-1.4
		C256.2,14.1,256.1,13.5,256.1,12.9z M262.6,12.1c0-0.7-0.2-1.3-0.6-1.7s-0.9-0.6-1.6-0.6c-0.6,0-1.2,0.2-1.7,0.6
		c-0.5,0.4-0.8,1-0.9,1.7H262.6z"/>
	<path class="st2" d="M274.7,6.5c-0.3-0.1-0.6-0.2-0.9-0.3s-0.6-0.1-1-0.1c-0.7,0-1.2,0.2-1.5,0.5c-0.3,0.3-0.5,0.8-0.5,1.5v0.6h3.3
		V10h-3.3v7h-1.7v-7h-2.3V8.8l2.3-0.1V8.1c0-0.5,0.1-1,0.2-1.4c0.1-0.4,0.3-0.8,0.6-1.1c0.3-0.3,0.6-0.5,1.1-0.7
		c0.4-0.2,0.9-0.2,1.5-0.2c0.8,0,1.6,0.2,2.4,0.5L274.7,6.5z"/>
	<path class="st2" d="M276.8,8.9h7.4v1.2h-7.4V8.9z M276.8,12.6h7.4v1.2h-7.4V12.6z"/>
</g>
<g class="st0">
	<path class="st3" d="M290.1,6.1c-0.5,0.3-1,0.7-1.3,1.1c-0.3,0.4-0.5,0.9-0.5,1.5c0.1-0.1,0.3-0.1,0.4-0.1c0.4,0,0.7,0.1,0.9,0.4
		c0.2,0.2,0.4,0.6,0.4,0.9c0,0.4-0.1,0.8-0.4,1c-0.2,0.3-0.6,0.4-1,0.4c-0.5,0-0.9-0.2-1.2-0.6c-0.3-0.4-0.5-0.9-0.5-1.6
		c0-0.9,0.2-1.6,0.7-2.3c0.4-0.7,1.1-1.2,1.9-1.6L290.1,6.1z M294.1,6.1c-0.5,0.3-1,0.7-1.3,1.1c-0.3,0.4-0.5,0.9-0.5,1.5
		c0.1-0.1,0.3-0.1,0.4-0.1c0.4,0,0.7,0.1,0.9,0.4c0.2,0.2,0.4,0.6,0.4,0.9c0,0.4-0.1,0.8-0.4,1c-0.2,0.3-0.6,0.4-1,0.4
		c-0.5,0-0.9-0.2-1.2-0.6c-0.3-0.4-0.4-0.9-0.4-1.6c0-0.9,0.2-1.6,0.7-2.3c0.4-0.7,1.1-1.2,1.9-1.6L294.1,6.1z"/>
	<path class="st3" d="M297.7,14.8c0.5,0.3,1,0.6,1.5,0.8c0.5,0.2,1.1,0.3,1.8,0.3c0.7,0,1.2-0.1,1.6-0.3c0.3-0.2,0.5-0.5,0.5-0.8
		c0-0.3-0.2-0.6-0.6-0.8c-0.4-0.2-1.1-0.5-2-0.7c-0.4-0.1-0.8-0.2-1.2-0.4c-0.4-0.1-0.7-0.3-1-0.5s-0.5-0.4-0.7-0.7
		c-0.2-0.2-0.3-0.5-0.3-0.8c0-0.4,0.1-0.7,0.2-1c0.2-0.3,0.4-0.5,0.7-0.8c0.3-0.2,0.7-0.4,1.1-0.5c0.4-0.1,1-0.2,1.5-0.2
		c0.7,0,1.3,0.1,1.9,0.3s1.1,0.5,1.5,0.8l-0.8,1.1c-0.4-0.2-0.8-0.5-1.2-0.6c-0.4-0.2-0.9-0.2-1.4-0.2c-0.7,0-1.2,0.1-1.5,0.3
		c-0.3,0.2-0.4,0.5-0.4,0.7c0,0.3,0.2,0.6,0.7,0.8c0.5,0.2,1,0.4,1.8,0.6c1,0.3,1.8,0.6,2.4,0.9s0.8,0.9,0.8,1.5
		c0,0.4-0.1,0.7-0.3,1c-0.2,0.3-0.4,0.6-0.7,0.8c-0.3,0.2-0.7,0.4-1.2,0.5c-0.5,0.1-1,0.2-1.6,0.2c-0.8,0-1.5-0.1-2.2-0.4
		c-0.7-0.3-1.3-0.6-1.8-0.9L297.7,14.8z"/>
	<path class="st3" d="M309.4,10h-2.3V8.8l2.3-0.1l0.2-2.3h1.4v2.3h3.9V10H311v3.7c0,0.7,0.1,1.2,0.4,1.6c0.3,0.4,0.8,0.5,1.6,0.5
		c0.4,0,0.7,0,1-0.1c0.3-0.1,0.6-0.2,0.9-0.3l0.3,1.2c-0.4,0.1-0.8,0.2-1.2,0.3c-0.5,0.1-0.9,0.1-1.4,0.1c-0.6,0-1.1-0.1-1.6-0.3
		c-0.4-0.2-0.8-0.4-1-0.7c-0.3-0.3-0.4-0.7-0.6-1.1s-0.2-0.9-0.2-1.4V10z"/>
	<path class="st3" d="M318,19.1c0.1,0,0.2,0,0.4,0c0.6,0,1-0.2,1.3-0.5c0.3-0.3,0.6-0.7,0.8-1.1l0.2-0.6L317,8.7h1.7l1.9,4.3
		c0.2,0.4,0.3,0.8,0.5,1.2c0.2,0.4,0.3,0.8,0.5,1.2h0.1c0.1-0.4,0.3-0.8,0.4-1.2c0.1-0.4,0.3-0.8,0.4-1.2l1.6-4.3h1.6l-3.6,8.8
		c-0.2,0.4-0.4,0.8-0.6,1.2c-0.2,0.4-0.5,0.7-0.8,0.9s-0.6,0.5-1,0.6c-0.4,0.1-0.8,0.2-1.3,0.2c-0.2,0-0.4,0-0.6,0
		c-0.2,0-0.4-0.1-0.5-0.1l0.3-1.3C317.8,19,317.9,19.1,318,19.1z"/>
	<path class="st3" d="M327.7,4.9h4.4v9.2c0,0.6,0.1,1,0.4,1.2s0.7,0.4,1.1,0.4c0.2,0,0.5,0,0.7-0.1c0.2-0.1,0.5-0.1,0.8-0.3l0.4,1.3
		c-0.2,0.1-0.4,0.1-0.6,0.2s-0.4,0.1-0.5,0.1c-0.2,0-0.4,0.1-0.6,0.1s-0.4,0-0.7,0c-0.9,0-1.6-0.3-2.1-0.8c-0.5-0.5-0.7-1.3-0.7-2.3
		V6.3h-2.7V4.9z"/>
	<path class="st3" d="M337.7,12.9c0-0.7,0.1-1.3,0.4-1.8s0.6-1,1-1.4c0.4-0.4,0.9-0.7,1.4-0.9s1-0.3,1.6-0.3c0.6,0,1.2,0.1,1.6,0.3
		c0.5,0.2,0.9,0.5,1.2,0.8c0.3,0.3,0.6,0.8,0.7,1.2c0.2,0.5,0.3,1,0.3,1.6c0,0.2,0,0.3,0,0.5s0,0.3-0.1,0.4h-6.3
		c0.1,0.8,0.4,1.5,0.9,1.9c0.5,0.5,1.2,0.7,2.1,0.7c0.5,0,0.9-0.1,1.3-0.2c0.4-0.1,0.8-0.3,1.1-0.5l0.6,1.1
		c-0.4,0.3-0.9,0.5-1.5,0.7c-0.5,0.2-1.1,0.3-1.8,0.3c-0.6,0-1.2-0.1-1.8-0.3c-0.5-0.2-1-0.5-1.4-0.9c-0.4-0.4-0.7-0.8-1-1.4
		C337.8,14.1,337.7,13.5,337.7,12.9z M344.2,12.1c0-0.7-0.2-1.3-0.6-1.7c-0.4-0.4-0.9-0.6-1.6-0.6c-0.6,0-1.2,0.2-1.7,0.6
		c-0.5,0.4-0.8,1-0.9,1.7H344.2z"/>
	<path class="st3" d="M348.7,14.8c0.5,0.3,1,0.6,1.5,0.8s1.1,0.3,1.8,0.3c0.7,0,1.2-0.1,1.6-0.3c0.3-0.2,0.5-0.5,0.5-0.8
		c0-0.3-0.2-0.6-0.6-0.8c-0.4-0.2-1.1-0.5-2-0.7c-0.4-0.1-0.8-0.2-1.2-0.4s-0.7-0.3-1-0.5s-0.5-0.4-0.7-0.7
		c-0.2-0.2-0.3-0.5-0.3-0.8c0-0.4,0.1-0.7,0.2-1c0.2-0.3,0.4-0.5,0.7-0.8c0.3-0.2,0.7-0.4,1.1-0.5c0.4-0.1,1-0.2,1.5-0.2
		c0.7,0,1.3,0.1,1.9,0.3c0.6,0.2,1.1,0.5,1.5,0.8l-0.8,1.1c-0.4-0.2-0.8-0.5-1.2-0.6c-0.4-0.2-0.9-0.2-1.4-0.2
		c-0.7,0-1.2,0.1-1.5,0.3s-0.4,0.5-0.4,0.7c0,0.3,0.2,0.6,0.7,0.8s1,0.4,1.8,0.6c1,0.3,1.8,0.6,2.4,0.9c0.6,0.4,0.8,0.9,0.8,1.5
		c0,0.4-0.1,0.7-0.3,1c-0.2,0.3-0.4,0.6-0.7,0.8c-0.3,0.2-0.7,0.4-1.2,0.5c-0.5,0.1-1,0.2-1.6,0.2c-0.8,0-1.5-0.1-2.2-0.4
		s-1.3-0.6-1.8-0.9L348.7,14.8z"/>
	<path class="st3" d="M360,19.7h-1.5l5.6-14.8h1.5L360,19.7z"/>
	<path class="st3" d="M368.7,8.7h5.4V17h-1.7v-7h-3.7V8.7z M373.1,7.1c-0.4,0-0.7-0.1-0.9-0.3c-0.2-0.2-0.4-0.5-0.4-0.9
		c0-0.4,0.1-0.7,0.4-0.9c0.2-0.2,0.5-0.3,0.9-0.3c0.4,0,0.7,0.1,0.9,0.3c0.2,0.2,0.4,0.5,0.4,0.9c0,0.4-0.1,0.7-0.4,0.9
		C373.8,7,373.5,7.1,373.1,7.1z"/>
	<path class="st3" d="M378.7,12.9c0-0.7,0.1-1.3,0.4-1.9c0.2-0.5,0.6-1,1-1.4c0.4-0.4,0.9-0.7,1.5-0.8c0.6-0.2,1.2-0.3,1.8-0.3
		c0.7,0,1.3,0.1,1.8,0.3c0.5,0.2,0.9,0.5,1.3,0.8l-0.8,1.1c-0.3-0.3-0.7-0.5-1-0.6c-0.4-0.2-0.7-0.2-1.1-0.2c-0.4,0-0.8,0.1-1.2,0.2
		s-0.7,0.3-1,0.6c-0.3,0.3-0.5,0.6-0.6,0.9s-0.2,0.8-0.2,1.2c0,0.4,0.1,0.8,0.2,1.2s0.3,0.7,0.6,0.9s0.6,0.5,0.9,0.6
		s0.8,0.2,1.2,0.2c0.5,0,1-0.1,1.4-0.3c0.4-0.2,0.8-0.4,1.1-0.7l0.7,1.1c-0.5,0.4-1,0.7-1.6,0.9c-0.6,0.2-1.2,0.3-1.8,0.3
		c-0.6,0-1.2-0.1-1.8-0.3s-1-0.5-1.5-0.8c-0.4-0.4-0.7-0.8-1-1.4C378.8,14.2,378.7,13.5,378.7,12.9z"/>
	<path class="st3" d="M388.5,12.9c0-0.7,0.1-1.3,0.3-1.9c0.2-0.5,0.5-1,0.9-1.4c0.4-0.4,0.8-0.7,1.3-0.8c0.5-0.2,1-0.3,1.6-0.3
		s1.1,0.1,1.6,0.3c0.5,0.2,0.9,0.5,1.3,0.8s0.7,0.8,0.9,1.4s0.3,1.2,0.3,1.9c0,0.7-0.1,1.3-0.3,1.8c-0.2,0.5-0.5,1-0.9,1.4
		s-0.8,0.7-1.3,0.8c-0.5,0.2-1,0.3-1.6,0.3s-1.1-0.1-1.6-0.3c-0.5-0.2-0.9-0.5-1.3-0.8c-0.4-0.4-0.7-0.8-0.9-1.4
		C388.7,14.2,388.5,13.5,388.5,12.9z M390.3,12.9c0,0.9,0.2,1.6,0.6,2.2c0.4,0.5,1,0.8,1.8,0.8s1.3-0.3,1.8-0.8
		c0.4-0.5,0.6-1.3,0.6-2.2c0-0.9-0.2-1.6-0.6-2.2c-0.4-0.5-1-0.8-1.8-0.8s-1.3,0.3-1.8,0.8C390.5,11.2,390.3,12,390.3,12.9z"/>
	<path class="st3" d="M399.3,8.7h1.4l0.1,1.3h0.1c0.4-0.4,0.9-0.8,1.4-1.1c0.5-0.3,1.1-0.5,1.7-0.5c1,0,1.7,0.3,2.1,0.9
		c0.5,0.6,0.7,1.4,0.7,2.5V17h-1.7v-4.9c0-0.7-0.1-1.3-0.4-1.6s-0.7-0.5-1.3-0.5c-0.4,0-0.8,0.1-1.2,0.3c-0.4,0.2-0.7,0.6-1.2,1V17
		h-1.7V8.7z"/>
	<path class="st3" d="M409.9,14.8c0.5,0.3,1,0.6,1.5,0.8s1.1,0.3,1.8,0.3c0.7,0,1.2-0.1,1.6-0.3c0.3-0.2,0.5-0.5,0.5-0.8
		c0-0.3-0.2-0.6-0.6-0.8c-0.4-0.2-1.1-0.5-2-0.7c-0.4-0.1-0.8-0.2-1.2-0.4c-0.4-0.1-0.7-0.3-1-0.5s-0.5-0.4-0.7-0.7
		c-0.2-0.2-0.3-0.5-0.3-0.8c0-0.4,0.1-0.7,0.2-1c0.2-0.3,0.4-0.5,0.7-0.8c0.3-0.2,0.7-0.4,1.1-0.5c0.4-0.1,1-0.2,1.5-0.2
		c0.7,0,1.3,0.1,1.9,0.3c0.6,0.2,1.1,0.5,1.5,0.8l-0.8,1.1c-0.4-0.2-0.8-0.5-1.2-0.6c-0.4-0.2-0.9-0.2-1.4-0.2
		c-0.7,0-1.2,0.1-1.5,0.3s-0.4,0.5-0.4,0.7c0,0.3,0.2,0.6,0.7,0.8s1,0.4,1.8,0.6c1,0.3,1.8,0.6,2.4,0.9s0.8,0.9,0.8,1.5
		c0,0.4-0.1,0.7-0.3,1c-0.2,0.3-0.4,0.6-0.7,0.8c-0.3,0.2-0.7,0.4-1.2,0.5c-0.5,0.1-1,0.2-1.6,0.2c-0.8,0-1.5-0.1-2.2-0.4
		c-0.7-0.3-1.3-0.6-1.8-0.9L409.9,14.8z"/>
	<path class="st3" d="M420.1,14.8c0.5,0.3,1,0.6,1.5,0.8c0.5,0.2,1.1,0.3,1.8,0.3c0.7,0,1.2-0.1,1.6-0.3c0.3-0.2,0.5-0.5,0.5-0.8
		c0-0.3-0.2-0.6-0.6-0.8c-0.4-0.2-1.1-0.5-2-0.7c-0.4-0.1-0.8-0.2-1.2-0.4c-0.4-0.1-0.7-0.3-1-0.5s-0.5-0.4-0.7-0.7
		c-0.2-0.2-0.3-0.5-0.3-0.8c0-0.4,0.1-0.7,0.2-1c0.2-0.3,0.4-0.5,0.7-0.8c0.3-0.2,0.7-0.4,1.1-0.5c0.4-0.1,1-0.2,1.5-0.2
		c0.7,0,1.3,0.1,1.9,0.3s1.1,0.5,1.5,0.8l-0.8,1.1c-0.4-0.2-0.8-0.5-1.2-0.6c-0.4-0.2-0.9-0.2-1.4-0.2c-0.7,0-1.2,0.1-1.5,0.3
		c-0.3,0.2-0.4,0.5-0.4,0.7c0,0.3,0.2,0.6,0.7,0.8c0.5,0.2,1,0.4,1.8,0.6c1,0.3,1.8,0.6,2.4,0.9s0.8,0.9,0.8,1.5
		c0,0.4-0.1,0.7-0.3,1c-0.2,0.3-0.4,0.6-0.7,0.8c-0.3,0.2-0.7,0.4-1.2,0.5c-0.5,0.1-1,0.2-1.6,0.2c-0.8,0-1.5-0.1-2.2-0.4
		c-0.7-0.3-1.3-0.6-1.8-0.9L420.1,14.8z"/>
	<path class="st3" d="M432,15.6c0-0.5,0.1-0.8,0.4-1.1c0.3-0.3,0.7-0.4,1.1-0.4c0.4,0,0.8,0.1,1.1,0.4c0.3,0.3,0.4,0.7,0.4,1.1
		c0,0.5-0.1,0.9-0.4,1.1c-0.3,0.3-0.7,0.4-1.1,0.4c-0.4,0-0.8-0.1-1.1-0.4C432.1,16.5,432,16.1,432,15.6z"/>
	<path class="st3" d="M439.9,12.9c0-0.7,0.1-1.3,0.4-1.9c0.2-0.5,0.6-1,1-1.4s0.9-0.7,1.5-0.8c0.6-0.2,1.2-0.3,1.8-0.3
		c0.7,0,1.3,0.1,1.8,0.3c0.5,0.2,0.9,0.5,1.3,0.8l-0.8,1.1c-0.3-0.3-0.7-0.5-1-0.6c-0.4-0.2-0.7-0.2-1.1-0.2c-0.4,0-0.8,0.1-1.2,0.2
		c-0.4,0.1-0.7,0.3-1,0.6c-0.3,0.3-0.5,0.6-0.6,0.9c-0.1,0.4-0.2,0.8-0.2,1.2c0,0.4,0.1,0.8,0.2,1.2c0.1,0.4,0.3,0.7,0.6,0.9
		c0.3,0.3,0.6,0.5,0.9,0.6c0.4,0.1,0.8,0.2,1.2,0.2c0.5,0,1-0.1,1.4-0.3c0.4-0.2,0.8-0.4,1.1-0.7l0.7,1.1c-0.5,0.4-1,0.7-1.6,0.9
		c-0.6,0.2-1.2,0.3-1.8,0.3c-0.6,0-1.2-0.1-1.8-0.3c-0.6-0.2-1-0.5-1.5-0.8c-0.4-0.4-0.7-0.8-1-1.4C440,14.2,439.9,13.5,439.9,12.9z
		"/>
	<path class="st3" d="M450.7,14.8c0.5,0.3,1,0.6,1.5,0.8s1.1,0.3,1.8,0.3c0.7,0,1.2-0.1,1.6-0.3c0.3-0.2,0.5-0.5,0.5-0.8
		c0-0.3-0.2-0.6-0.6-0.8c-0.4-0.2-1.1-0.5-2-0.7c-0.4-0.1-0.8-0.2-1.2-0.4s-0.7-0.3-1-0.5s-0.5-0.4-0.7-0.7
		c-0.2-0.2-0.3-0.5-0.3-0.8c0-0.4,0.1-0.7,0.2-1c0.2-0.3,0.4-0.5,0.7-0.8c0.3-0.2,0.7-0.4,1.1-0.5c0.4-0.1,1-0.2,1.5-0.2
		c0.7,0,1.3,0.1,1.9,0.3c0.6,0.2,1.1,0.5,1.5,0.8l-0.8,1.1c-0.4-0.2-0.8-0.5-1.2-0.6c-0.4-0.2-0.9-0.2-1.4-0.2
		c-0.7,0-1.2,0.1-1.5,0.3s-0.4,0.5-0.4,0.7c0,0.3,0.2,0.6,0.7,0.8s1,0.4,1.8,0.6c1,0.3,1.8,0.6,2.4,0.9c0.6,0.4,0.8,0.9,0.8,1.5
		c0,0.4-0.1,0.7-0.3,1c-0.2,0.3-0.4,0.6-0.7,0.8c-0.3,0.2-0.7,0.4-1.2,0.5c-0.5,0.1-1,0.2-1.6,0.2c-0.8,0-1.5-0.1-2.2-0.4
		s-1.3-0.6-1.8-0.9L450.7,14.8z"/>
	<path class="st3" d="M460.9,14.8c0.5,0.3,1,0.6,1.5,0.8c0.5,0.2,1.1,0.3,1.8,0.3c0.7,0,1.2-0.1,1.6-0.3c0.3-0.2,0.5-0.5,0.5-0.8
		c0-0.3-0.2-0.6-0.6-0.8c-0.4-0.2-1.1-0.5-2-0.7c-0.4-0.1-0.8-0.2-1.2-0.4c-0.4-0.1-0.7-0.3-1-0.5s-0.5-0.4-0.7-0.7
		c-0.2-0.2-0.3-0.5-0.3-0.8c0-0.4,0.1-0.7,0.2-1s0.4-0.5,0.7-0.8c0.3-0.2,0.7-0.4,1.1-0.5c0.4-0.1,1-0.2,1.5-0.2
		c0.7,0,1.3,0.1,1.9,0.3c0.6,0.2,1.1,0.5,1.5,0.8l-0.8,1.1c-0.4-0.2-0.8-0.5-1.2-0.6c-0.4-0.2-0.9-0.2-1.4-0.2
		c-0.7,0-1.2,0.1-1.5,0.3c-0.3,0.2-0.4,0.5-0.4,0.7c0,0.3,0.2,0.6,0.7,0.8c0.5,0.2,1,0.4,1.8,0.6c1,0.3,1.8,0.6,2.4,0.9
		c0.6,0.4,0.8,0.9,0.8,1.5c0,0.4-0.1,0.7-0.3,1c-0.2,0.3-0.4,0.6-0.7,0.8s-0.7,0.4-1.2,0.5c-0.5,0.1-1,0.2-1.6,0.2
		c-0.8,0-1.5-0.1-2.2-0.4s-1.3-0.6-1.8-0.9L460.9,14.8z"/>
	<path class="st3" d="M470.8,10.4c0.5-0.3,1-0.7,1.3-1.1c0.3-0.4,0.5-0.9,0.5-1.5c-0.1,0.1-0.3,0.1-0.4,0.1c-0.4,0-0.7-0.1-0.9-0.4
		c-0.2-0.2-0.4-0.6-0.4-1c0-0.4,0.1-0.8,0.4-1c0.2-0.3,0.6-0.4,1-0.4c0.5,0,0.9,0.2,1.2,0.6c0.3,0.4,0.5,0.9,0.5,1.6
		c0,0.9-0.2,1.6-0.7,2.3c-0.4,0.7-1.1,1.2-1.9,1.6L470.8,10.4z M474.8,10.4c0.5-0.3,1-0.7,1.3-1.1c0.3-0.4,0.5-0.9,0.5-1.5
		c-0.1,0.1-0.3,0.1-0.4,0.1c-0.4,0-0.7-0.1-0.9-0.4s-0.4-0.6-0.4-1c0-0.4,0.1-0.8,0.4-1c0.2-0.3,0.6-0.4,1-0.4
		c0.5,0,0.9,0.2,1.2,0.6c0.3,0.4,0.5,0.9,0.5,1.6c0,0.9-0.2,1.6-0.7,2.3c-0.4,0.7-1.1,1.2-1.9,1.6L474.8,10.4z"/>
</g>
<g class="st0">
	<path class="st1" d="M487.6,12l-6.4,4.3v-1.6l5-3.3v-0.1l-5-3.3V6.5l6.4,4.3V12z"/>
</g>
</svg>
