<?xml version="1.0" encoding="utf-8"?>
<!-- Generator: Adobe Illustrator 21.0.2, SVG Export Plug-In . SVG Version: 6.00 Build 0)  -->
<svg version="1.1" id="Capa_1" xmlns="http://www.w3.org/2000/svg" xmlns:xlink="http://www.w3.org/1999/xlink" x="0px" y="0px"
	 viewBox="0 0 504 18" style="enable-background:new 0 0 504 18;" xml:space="preserve">
<style type="text/css">
	.st0{enable-background:new    ;}
	.st1{fill:#96CBF7;}
	.st2{fill:#A8FF60;}
	.st3{fill:#C6C5FE;}
</style>
<g class="st0">
	<path class="st1" d="M1.7,8.8l5.3-3.5v1.3L2.9,9.3v0.1l4.1,2.7v1.3L1.7,9.9V8.8z"/>
	<path class="st1" d="M9.2,10.6c0-0.6,0.1-1.1,0.3-1.5S9.8,8.3,10.1,8c0.3-0.3,0.6-0.5,1-0.7S11.9,7,12.2,7c0.4,0,0.8,0.1,1.1,0.2
		s0.6,0.4,0.9,0.6l-0.1-1.2V4.1h1.4V14h-1.1l-0.1-0.8h0c-0.3,0.3-0.6,0.5-1,0.7c-0.4,0.2-0.8,0.3-1.2,0.3c-0.4,0-0.9-0.1-1.2-0.2
		c-0.4-0.2-0.7-0.4-0.9-0.7c-0.3-0.3-0.5-0.7-0.6-1.1C9.3,11.7,9.2,11.2,9.2,10.6z M10.6,10.6c0,0.8,0.2,1.4,0.5,1.8
		c0.3,0.4,0.8,0.6,1.4,0.6c0.6,0,1.2-0.3,1.7-0.9V8.8c-0.3-0.3-0.5-0.4-0.8-0.5c-0.3-0.1-0.5-0.2-0.8-0.2c-0.3,0-0.5,0.1-0.8,0.2
		c-0.2,0.1-0.4,0.3-0.6,0.5C11,9,10.9,9.3,10.8,9.6C10.7,9.9,10.6,10.2,10.6,10.6z"/>
	<path class="st1" d="M18,7.2h4.5V14h-1.4V8.3H18V7.2z M21.7,5.9c-0.3,0-0.5-0.1-0.7-0.3c-0.2-0.2-0.3-0.4-0.3-0.7s0.1-0.5,0.3-0.7
		c0.2-0.2,0.4-0.3,0.7-0.3s0.5,0.1,0.7,0.3c0.2,0.2,0.3,0.4,0.3,0.7s-0.1,0.5-0.3,0.7C22.2,5.8,22,5.9,21.7,5.9z"/>
	<path class="st1" d="M25.8,7.2h1.4l1.4,3.7c0.1,0.3,0.3,0.7,0.4,1s0.2,0.7,0.4,1h0.1c0.1-0.3,0.2-0.7,0.4-1c0.1-0.3,0.2-0.7,0.4-1
		l1.4-3.7H33L30.2,14h-1.6L25.8,7.2z"/>
	<path class="st1" d="M43.1,10.6c0-0.6,0.1-1.1,0.3-1.5c0.2-0.4,0.5-0.8,0.8-1.1c0.4-0.3,0.8-0.5,1.2-0.7c0.5-0.2,1-0.2,1.5-0.2
		c0.6,0,1,0.1,1.5,0.3c0.4,0.2,0.8,0.4,1.1,0.7l-0.7,0.9c-0.3-0.2-0.6-0.4-0.8-0.5c-0.3-0.1-0.6-0.2-0.9-0.2c-0.4,0-0.7,0.1-1,0.2
		c-0.3,0.1-0.6,0.3-0.8,0.5C45,9,44.8,9.3,44.7,9.6c-0.1,0.3-0.2,0.6-0.2,1s0.1,0.7,0.2,1c0.1,0.3,0.3,0.6,0.5,0.8s0.5,0.4,0.8,0.5
		c0.3,0.1,0.6,0.2,1,0.2c0.4,0,0.8-0.1,1.1-0.2c0.3-0.2,0.6-0.3,0.9-0.6l0.6,0.9c-0.4,0.3-0.8,0.6-1.3,0.8c-0.5,0.2-1,0.3-1.5,0.3
		c-0.5,0-1-0.1-1.5-0.2c-0.5-0.2-0.9-0.4-1.2-0.7c-0.3-0.3-0.6-0.7-0.8-1.1C43.2,11.7,43.1,11.2,43.1,10.6z"/>
	<path class="st1" d="M51.5,4.1h3.6v7.6c0,0.5,0.1,0.8,0.4,1c0.2,0.2,0.5,0.3,0.9,0.3c0.2,0,0.4,0,0.6-0.1c0.2,0,0.4-0.1,0.7-0.2
		l0.3,1c-0.2,0.1-0.3,0.1-0.5,0.2C57.3,14,57.2,14,57,14c-0.1,0-0.3,0.1-0.5,0.1c-0.2,0-0.3,0-0.5,0c-0.8,0-1.3-0.2-1.7-0.7
		c-0.4-0.4-0.6-1.1-0.6-1.9V5.2h-2.2V4.1z"/>
	<path class="st1" d="M59.9,12.2c0-0.4,0.1-0.7,0.3-1c0.2-0.3,0.5-0.5,0.9-0.7s0.9-0.4,1.5-0.5s1.3-0.2,2.2-0.3
		c0-0.4-0.2-0.8-0.4-1.1S63.6,8.1,63,8.1c-0.4,0-0.8,0.1-1.2,0.2c-0.4,0.2-0.8,0.3-1.1,0.5L60.1,8c0.2-0.1,0.4-0.2,0.6-0.3
		c0.2-0.1,0.5-0.2,0.7-0.3c0.3-0.1,0.5-0.2,0.8-0.2C62.6,7,62.9,7,63.2,7c1,0,1.7,0.3,2.1,0.8c0.5,0.5,0.7,1.2,0.7,2.1V14h-1.1
		l-0.1-0.9h0c-0.4,0.3-0.8,0.5-1.2,0.7c-0.5,0.2-0.9,0.3-1.4,0.3c-0.3,0-0.6,0-0.9-0.1c-0.3-0.1-0.5-0.2-0.7-0.4
		c-0.2-0.2-0.4-0.4-0.5-0.6C59.9,12.8,59.9,12.5,59.9,12.2z M61.2,12.1c0,0.3,0.1,0.6,0.4,0.7s0.6,0.2,1,0.2c0.4,0,0.7-0.1,1.1-0.2
		c0.4-0.2,0.7-0.4,1.1-0.7v-1.6c-0.7,0.1-1.2,0.1-1.7,0.2c-0.4,0.1-0.8,0.2-1.1,0.3c-0.3,0.1-0.5,0.3-0.6,0.5
		C61.3,11.7,61.2,11.9,61.2,12.1z"/>
	<path class="st1" d="M68.8,12.2c0.4,0.3,0.8,0.5,1.2,0.7c0.4,0.2,0.9,0.2,1.5,0.2c0.6,0,1-0.1,1.3-0.3c0.3-0.2,0.4-0.4,0.4-0.7
		c0-0.3-0.2-0.5-0.5-0.7s-0.9-0.4-1.6-0.6c-0.3-0.1-0.7-0.2-1-0.3c-0.3-0.1-0.6-0.3-0.8-0.4s-0.4-0.3-0.6-0.5
		c-0.1-0.2-0.2-0.4-0.2-0.7c0-0.3,0.1-0.6,0.2-0.8c0.1-0.2,0.3-0.5,0.6-0.6c0.3-0.2,0.6-0.3,0.9-0.4C70.6,7,71,7,71.5,7
		C72,7,72.5,7.1,73,7.3c0.5,0.2,0.9,0.4,1.3,0.6l-0.6,0.9c-0.3-0.2-0.6-0.4-1-0.5C72.3,8.1,71.9,8,71.5,8c-0.6,0-1,0.1-1.2,0.3
		s-0.3,0.4-0.3,0.6c0,0.3,0.2,0.5,0.6,0.6c0.4,0.2,0.9,0.3,1.4,0.5c0.9,0.2,1.5,0.5,2,0.8c0.5,0.3,0.7,0.7,0.7,1.3
		c0,0.3-0.1,0.6-0.2,0.8c-0.1,0.3-0.3,0.5-0.6,0.7c-0.3,0.2-0.6,0.3-1,0.4c-0.4,0.1-0.8,0.2-1.3,0.2c-0.7,0-1.3-0.1-1.8-0.3
		c-0.6-0.2-1.1-0.5-1.5-0.7L68.8,12.2z"/>
	<path class="st1" d="M77.2,12.2c0.4,0.3,0.8,0.5,1.2,0.7c0.4,0.2,0.9,0.2,1.5,0.2c0.6,0,1-0.1,1.3-0.3c0.3-0.2,0.4-0.4,0.4-0.7
		c0-0.3-0.2-0.5-0.5-0.7s-0.9-0.4-1.6-0.6c-0.3-0.1-0.7-0.2-1-0.3c-0.3-0.1-0.6-0.3-0.8-0.4s-0.4-0.3-0.6-0.5
		C77,9.5,76.9,9.2,76.9,9c0-0.3,0.1-0.6,0.2-0.8c0.1-0.2,0.3-0.5,0.6-0.6c0.3-0.2,0.6-0.3,0.9-0.4C79,7,79.4,7,79.9,7
		c0.5,0,1.1,0.1,1.5,0.3c0.5,0.2,0.9,0.4,1.3,0.6L82,8.8c-0.3-0.2-0.6-0.4-1-0.5C80.7,8.1,80.3,8,79.9,8c-0.6,0-1,0.1-1.2,0.3
		s-0.3,0.4-0.3,0.6c0,0.3,0.2,0.5,0.6,0.6c0.4,0.2,0.9,0.3,1.4,0.5c0.9,0.2,1.5,0.5,2,0.8c0.5,0.3,0.7,0.7,0.7,1.3
		c0,0.3-0.1,0.6-0.2,0.8c-0.1,0.3-0.3,0.5-0.6,0.7c-0.3,0.2-0.6,0.3-1,0.4c-0.4,0.1-0.8,0.2-1.3,0.2c-0.7,0-1.3-0.1-1.8-0.3
		c-0.6-0.2-1.1-0.5-1.5-0.7L77.2,12.2z"/>
	<path class="st1" d="M85.1,7.3h6.1v1h-6.1V7.3z M85.1,10.4h6.1v1h-6.1V10.4z"/>
	<path class="st1" d="M96.1,5c-0.4,0.2-0.8,0.5-1.1,0.9c-0.3,0.3-0.4,0.8-0.4,1.2c0.1,0,0.2-0.1,0.3-0.1c0.3,0,0.6,0.1,0.8,0.3
		c0.2,0.2,0.3,0.5,0.3,0.8c0,0.4-0.1,0.6-0.3,0.9c-0.2,0.2-0.5,0.3-0.8,0.3c-0.4,0-0.7-0.2-1-0.5c-0.2-0.3-0.4-0.8-0.4-1.4
		c0-0.7,0.2-1.4,0.6-1.9c0.4-0.6,0.9-1,1.6-1.3L96.1,5z M99.4,5c-0.4,0.2-0.8,0.5-1,0.9C98.1,6.3,98,6.7,98,7.1
		c0.1,0,0.2-0.1,0.3-0.1c0.3,0,0.6,0.1,0.8,0.3c0.2,0.2,0.3,0.5,0.3,0.8c0,0.4-0.1,0.6-0.3,0.9c-0.2,0.2-0.5,0.3-0.8,0.3
		c-0.4,0-0.7-0.2-1-0.5s-0.4-0.8-0.4-1.4c0-0.7,0.2-1.4,0.6-1.9c0.4-0.6,0.9-1,1.6-1.3L99.4,5z"/>
</g>
<g class="st0">
	<path class="st2" d="M102,7.2h4.5V14h-1.4V8.3H102V7.2z M105.7,5.9c-0.3,0-0.5-0.1-0.7-0.3c-0.2-0.2-0.3-0.4-0.3-0.7
		s0.1-0.5,0.3-0.7c0.2-0.2,0.4-0.3,0.7-0.3s0.5,0.1,0.7,0.3c0.2,0.2,0.3,0.4,0.3,0.7s-0.1,0.5-0.3,0.7C106.2,5.8,106,5.9,105.7,5.9z
		"/>
	<path class="st2" d="M110.3,10.6c0-0.6,0.1-1.1,0.3-1.5c0.2-0.4,0.5-0.8,0.8-1.1c0.4-0.3,0.8-0.5,1.2-0.7c0.5-0.2,1-0.2,1.5-0.2
		c0.6,0,1,0.1,1.5,0.3c0.4,0.2,0.8,0.4,1.1,0.7L116,8.8c-0.3-0.2-0.6-0.4-0.8-0.5c-0.3-0.1-0.6-0.2-0.9-0.2c-0.4,0-0.7,0.1-1,0.2
		c-0.3,0.1-0.6,0.3-0.8,0.5c-0.2,0.2-0.4,0.5-0.5,0.8c-0.1,0.3-0.2,0.6-0.2,1s0.1,0.7,0.2,1c0.1,0.3,0.3,0.6,0.5,0.8
		s0.5,0.4,0.8,0.5c0.3,0.1,0.6,0.2,1,0.2c0.4,0,0.8-0.1,1.1-0.2c0.3-0.2,0.6-0.3,0.9-0.6l0.6,0.9c-0.4,0.3-0.8,0.6-1.3,0.8
		c-0.5,0.2-1,0.3-1.5,0.3c-0.5,0-1-0.1-1.5-0.2c-0.5-0.2-0.9-0.4-1.2-0.7c-0.3-0.3-0.6-0.7-0.8-1.1
		C110.4,11.7,110.3,11.2,110.3,10.6z"/>
	<path class="st2" d="M118.4,10.6c0-0.6,0.1-1.1,0.3-1.5c0.2-0.4,0.4-0.8,0.8-1.1c0.3-0.3,0.7-0.5,1.1-0.7c0.4-0.2,0.8-0.2,1.3-0.2
		c0.4,0,0.9,0.1,1.3,0.2c0.4,0.2,0.8,0.4,1.1,0.7c0.3,0.3,0.6,0.7,0.8,1.1c0.2,0.4,0.3,1,0.3,1.5s-0.1,1.1-0.3,1.5
		c-0.2,0.4-0.4,0.8-0.8,1.1c-0.3,0.3-0.7,0.5-1.1,0.7c-0.4,0.2-0.8,0.2-1.3,0.2c-0.4,0-0.9-0.1-1.3-0.2c-0.4-0.2-0.8-0.4-1.1-0.7
		c-0.3-0.3-0.6-0.7-0.8-1.1C118.5,11.7,118.4,11.2,118.4,10.6z M119.8,10.6c0,0.7,0.2,1.3,0.5,1.8c0.4,0.4,0.8,0.7,1.5,0.7
		c0.6,0,1.1-0.2,1.5-0.7c0.4-0.4,0.5-1,0.5-1.8s-0.2-1.3-0.5-1.8c-0.4-0.4-0.8-0.7-1.5-0.7c-0.6,0-1.1,0.2-1.5,0.7
		C120,9.3,119.8,9.8,119.8,10.6z"/>
	<path class="st2" d="M127.2,7.2h1.1l0.1,1.1h0.1c0.3-0.4,0.7-0.7,1.1-0.9c0.4-0.2,0.9-0.4,1.4-0.4c0.8,0,1.4,0.2,1.8,0.7
		c0.4,0.5,0.6,1.2,0.6,2.1V14H132V9.9c0-0.6-0.1-1-0.3-1.3c-0.2-0.3-0.6-0.4-1.1-0.4c-0.4,0-0.7,0.1-1,0.3c-0.3,0.2-0.6,0.5-1,0.8
		V14h-1.4V7.2z"/>
	<path class="st2" d="M136.1,11.9c0.4,0.3,0.8,0.6,1.2,0.8c0.4,0.2,0.9,0.3,1.4,0.3c0.6,0,1.1-0.1,1.4-0.4c0.3-0.2,0.5-0.6,0.5-1
		c0-0.2,0-0.4-0.1-0.5s-0.2-0.3-0.3-0.4c-0.1-0.1-0.3-0.2-0.5-0.3c-0.2-0.1-0.4-0.2-0.6-0.3l-1.3-0.6c-0.2-0.1-0.5-0.2-0.7-0.3
		c-0.2-0.1-0.4-0.3-0.6-0.5c-0.2-0.2-0.3-0.4-0.5-0.7c-0.1-0.3-0.2-0.6-0.2-0.9c0-0.4,0.1-0.7,0.2-1c0.1-0.3,0.4-0.6,0.6-0.8
		c0.3-0.2,0.6-0.4,1-0.5s0.8-0.2,1.3-0.2c0.6,0,1.1,0.1,1.6,0.3c0.5,0.2,0.9,0.5,1.3,0.8l-0.7,0.9c-0.3-0.3-0.6-0.5-1-0.6
		c-0.3-0.1-0.7-0.2-1.2-0.2c-0.5,0-0.9,0.1-1.2,0.3c-0.3,0.2-0.4,0.5-0.4,0.9c0,0.2,0,0.4,0.1,0.5c0.1,0.1,0.2,0.3,0.4,0.4
		c0.1,0.1,0.3,0.2,0.5,0.3s0.4,0.2,0.6,0.2L140,9c0.3,0.1,0.6,0.2,0.8,0.4c0.2,0.1,0.5,0.3,0.6,0.5c0.2,0.2,0.3,0.4,0.4,0.7
		c0.1,0.3,0.2,0.6,0.2,0.9c0,0.4-0.1,0.7-0.2,1c-0.1,0.3-0.4,0.6-0.7,0.9c-0.3,0.2-0.6,0.4-1,0.6c-0.4,0.1-0.9,0.2-1.4,0.2
		c-0.7,0-1.3-0.1-1.8-0.4c-0.6-0.2-1.1-0.6-1.5-1L136.1,11.9z"/>
	<path class="st2" d="M144,7.2h4.5V14h-1.4V8.3H144V7.2z M147.7,5.9c-0.3,0-0.5-0.1-0.7-0.3c-0.2-0.2-0.3-0.4-0.3-0.7
		s0.1-0.5,0.3-0.7c0.2-0.2,0.4-0.3,0.7-0.3s0.5,0.1,0.7,0.3c0.2,0.2,0.3,0.4,0.3,0.7s-0.1,0.5-0.3,0.7C148.2,5.8,148,5.9,147.7,5.9z
		"/>
	<path class="st2" d="M152.2,13.3l4.4-5h-3.9V7.2h5.9v0.7l-4.4,5h4.5V14h-6.5V13.3z"/>
	<path class="st2" d="M160.5,10.6c0-0.6,0.1-1.1,0.3-1.5c0.2-0.4,0.5-0.8,0.8-1.1s0.7-0.6,1.1-0.7c0.4-0.2,0.9-0.2,1.3-0.2
		c0.5,0,0.9,0.1,1.3,0.2c0.4,0.2,0.7,0.4,1,0.7c0.3,0.3,0.5,0.6,0.6,1s0.2,0.8,0.2,1.3c0,0.1,0,0.3,0,0.4s0,0.2,0,0.3h-5.2
		c0,0.7,0.3,1.2,0.7,1.6s1,0.6,1.7,0.6c0.4,0,0.7-0.1,1-0.2c0.3-0.1,0.6-0.2,0.9-0.4l0.5,0.9c-0.4,0.2-0.8,0.4-1.2,0.6
		c-0.4,0.2-0.9,0.2-1.5,0.2c-0.5,0-1-0.1-1.4-0.2s-0.8-0.4-1.2-0.7c-0.3-0.3-0.6-0.7-0.8-1.1S160.5,11.1,160.5,10.6z M165.9,10
		c0-0.6-0.2-1.1-0.5-1.4c-0.3-0.3-0.8-0.5-1.4-0.5c-0.5,0-1,0.2-1.4,0.5c-0.4,0.3-0.6,0.8-0.7,1.4H165.9z"/>
	<path class="st2" d="M179.7,10.4l-2.4-3.3h1.5l1,1.4c0.1,0.2,0.2,0.4,0.4,0.6c0.1,0.2,0.3,0.4,0.4,0.6h0.1c0.1-0.2,0.2-0.4,0.4-0.6
		s0.2-0.4,0.4-0.6l0.9-1.4h1.5l-2.4,3.4L184,14h-1.5l-1.1-1.5c-0.1-0.2-0.3-0.4-0.4-0.6c-0.1-0.2-0.3-0.4-0.4-0.6h-0.1
		c-0.1,0.2-0.3,0.4-0.4,0.6c-0.1,0.2-0.3,0.4-0.4,0.6l-1,1.5h-1.5L179.7,10.4z"/>
	<path class="st2" d="M188.1,10.4l-2.4-3.3h1.5l1,1.4c0.1,0.2,0.2,0.4,0.4,0.6c0.1,0.2,0.3,0.4,0.4,0.6h0.1c0.1-0.2,0.2-0.4,0.4-0.6
		s0.2-0.4,0.4-0.6l0.9-1.4h1.5l-2.4,3.4l2.5,3.4h-1.5l-1.1-1.5c-0.1-0.2-0.3-0.4-0.4-0.6c-0.1-0.2-0.3-0.4-0.4-0.6h-0.1
		c-0.1,0.2-0.3,0.4-0.4,0.6c-0.1,0.2-0.3,0.4-0.4,0.6l-1,1.5h-1.5L188.1,10.4z"/>
	<path class="st2" d="M194.3,4.1h3.6v7.6c0,0.5,0.1,0.8,0.4,1c0.2,0.2,0.5,0.3,0.9,0.3c0.2,0,0.4,0,0.6-0.1c0.2,0,0.4-0.1,0.7-0.2
		l0.3,1c-0.2,0.1-0.3,0.1-0.5,0.2c-0.1,0-0.3,0.1-0.4,0.1c-0.1,0-0.3,0.1-0.5,0.1c-0.2,0-0.3,0-0.5,0c-0.8,0-1.3-0.2-1.7-0.7
		c-0.4-0.4-0.6-1.1-0.6-1.9V5.2h-2.2V4.1z"/>
</g>
<g class="st0">
	<path class="st1" d="M202.9,8.5c0.4-0.2,0.8-0.5,1.1-0.9c0.3-0.4,0.4-0.8,0.4-1.2c-0.1,0-0.2,0.1-0.3,0.1c-0.3,0-0.6-0.1-0.8-0.3
		C203.1,6,203,5.7,203,5.4c0-0.3,0.1-0.6,0.3-0.8c0.2-0.2,0.5-0.3,0.8-0.3c0.4,0,0.7,0.2,1,0.5c0.2,0.3,0.4,0.8,0.4,1.4
		c0,0.7-0.2,1.4-0.6,1.9c-0.4,0.6-0.9,1-1.6,1.3L202.9,8.5z M206.2,8.5c0.4-0.2,0.8-0.5,1.1-0.9c0.3-0.4,0.4-0.8,0.4-1.2
		c-0.1,0-0.2,0.1-0.3,0.1c-0.3,0-0.6-0.1-0.8-0.3s-0.3-0.5-0.3-0.8c0-0.3,0.1-0.6,0.3-0.8s0.5-0.3,0.8-0.3c0.4,0,0.7,0.2,1,0.5
		s0.4,0.8,0.4,1.4c0,0.7-0.2,1.4-0.6,1.9c-0.4,0.6-0.9,1-1.6,1.3L206.2,8.5z"/>
	<path class="st1" d="M216.7,9.9l-5.3,3.5v-1.3l4.1-2.7V9.3l-4.1-2.7V5.3l5.3,3.5V9.9z"/>
	<path class="st1" d="M220.1,8.8l5.3-3.5v1.3l-4.1,2.7v0.1l4.1,2.7v1.3l-5.3-3.5V8.8z"/>
	<path class="st1" d="M228,7.2h4.5V14h-1.4V8.3H228V7.2z M231.7,5.9c-0.3,0-0.5-0.1-0.7-0.3c-0.2-0.2-0.3-0.4-0.3-0.7
		s0.1-0.5,0.3-0.7c0.2-0.2,0.4-0.3,0.7-0.3s0.5,0.1,0.7,0.3c0.2,0.2,0.3,0.4,0.3,0.7s-0.1,0.5-0.3,0.7C232.2,5.8,232,5.9,231.7,5.9z
		"/>
	<path class="st1" d="M244.7,10.6c0-0.6,0.1-1.1,0.3-1.5c0.2-0.4,0.5-0.8,0.8-1.1c0.4-0.3,0.8-0.5,1.2-0.7c0.5-0.2,1-0.2,1.5-0.2
		c0.6,0,1,0.1,1.5,0.3s0.8,0.4,1,0.7l-0.7,0.9c-0.3-0.2-0.6-0.4-0.8-0.5s-0.6-0.2-0.9-0.2c-0.4,0-0.7,0.1-1,0.2
		c-0.3,0.1-0.6,0.3-0.8,0.5c-0.2,0.2-0.4,0.5-0.5,0.8c-0.1,0.3-0.2,0.6-0.2,1s0.1,0.7,0.2,1c0.1,0.3,0.3,0.6,0.5,0.8
		c0.2,0.2,0.5,0.4,0.8,0.5c0.3,0.1,0.6,0.2,1,0.2c0.4,0,0.8-0.1,1.1-0.2c0.3-0.2,0.6-0.3,0.9-0.6l0.6,0.9c-0.4,0.3-0.8,0.6-1.3,0.8
		c-0.5,0.2-1,0.3-1.5,0.3c-0.5,0-1-0.1-1.5-0.2c-0.5-0.2-0.9-0.4-1.2-0.7c-0.3-0.3-0.6-0.7-0.8-1.1
		C244.8,11.7,244.7,11.2,244.7,10.6z"/>
	<path class="st1" d="M253.1,4.1h3.6v7.6c0,0.5,0.1,0.8,0.4,1c0.2,0.2,0.5,0.3,0.9,0.3c0.2,0,0.4,0,0.6-0.1c0.2,0,0.4-0.1,0.7-0.2
		l0.3,1c-0.2,0.1-0.3,0.1-0.5,0.2c-0.1,0-0.3,0.1-0.4,0.1c-0.1,0-0.3,0.1-0.5,0.1c-0.2,0-0.3,0-0.5,0c-0.8,0-1.3-0.2-1.7-0.7
		c-0.4-0.4-0.6-1.1-0.6-1.9V5.2h-2.2V4.1z"/>
	<path class="st1" d="M261.5,12.2c0-0.4,0.1-0.7,0.3-1c0.2-0.3,0.5-0.5,0.9-0.7c0.4-0.2,0.9-0.4,1.5-0.5s1.3-0.2,2.2-0.3
		c0-0.4-0.2-0.8-0.4-1.1s-0.7-0.4-1.3-0.4c-0.4,0-0.8,0.1-1.2,0.2c-0.4,0.2-0.8,0.3-1.1,0.5L261.7,8c0.2-0.1,0.4-0.2,0.6-0.3
		c0.2-0.1,0.5-0.2,0.7-0.3c0.3-0.1,0.5-0.2,0.8-0.2c0.3-0.1,0.6-0.1,0.9-0.1c1,0,1.7,0.3,2.1,0.8c0.5,0.5,0.7,1.2,0.7,2.1V14h-1.1
		l-0.1-0.9h0c-0.4,0.3-0.8,0.5-1.2,0.7c-0.5,0.2-0.9,0.3-1.4,0.3c-0.3,0-0.6,0-0.9-0.1c-0.3-0.1-0.5-0.2-0.7-0.4s-0.4-0.4-0.5-0.6
		C261.5,12.8,261.5,12.5,261.5,12.2z M262.8,12.1c0,0.3,0.1,0.6,0.4,0.7c0.3,0.1,0.6,0.2,1,0.2c0.4,0,0.7-0.1,1.1-0.2
		c0.3-0.2,0.7-0.4,1.1-0.7v-1.6c-0.7,0.1-1.2,0.1-1.7,0.2s-0.8,0.2-1.1,0.3c-0.3,0.1-0.5,0.3-0.6,0.5
		C262.9,11.7,262.8,11.9,262.8,12.1z"/>
	<path class="st1" d="M270.4,12.2c0.4,0.3,0.8,0.5,1.2,0.7s0.9,0.2,1.5,0.2c0.6,0,1-0.1,1.3-0.3c0.3-0.2,0.4-0.4,0.4-0.7
		c0-0.3-0.2-0.5-0.5-0.7c-0.3-0.2-0.9-0.4-1.6-0.6c-0.3-0.1-0.7-0.2-1-0.3c-0.3-0.1-0.6-0.3-0.8-0.4s-0.4-0.3-0.6-0.5
		c-0.1-0.2-0.2-0.4-0.2-0.7c0-0.3,0.1-0.6,0.2-0.8c0.1-0.2,0.3-0.5,0.6-0.6c0.3-0.2,0.6-0.3,0.9-0.4c0.4-0.1,0.8-0.2,1.3-0.2
		c0.5,0,1.1,0.1,1.5,0.3c0.5,0.2,0.9,0.4,1.3,0.6l-0.6,0.9c-0.3-0.2-0.6-0.4-1-0.5S273.5,8,273.1,8c-0.6,0-1,0.1-1.2,0.3
		s-0.3,0.4-0.3,0.6c0,0.3,0.2,0.5,0.6,0.6c0.4,0.2,0.9,0.3,1.4,0.5c0.9,0.2,1.5,0.5,2,0.8c0.5,0.3,0.7,0.7,0.7,1.3
		c0,0.3-0.1,0.6-0.2,0.8c-0.1,0.3-0.3,0.5-0.6,0.7c-0.3,0.2-0.6,0.3-1,0.4s-0.8,0.2-1.3,0.2c-0.7,0-1.3-0.1-1.8-0.3
		c-0.6-0.2-1.1-0.5-1.5-0.7L270.4,12.2z"/>
	<path class="st1" d="M278.8,12.2c0.4,0.3,0.8,0.5,1.2,0.7s0.9,0.2,1.5,0.2c0.6,0,1-0.1,1.3-0.3c0.3-0.2,0.4-0.4,0.4-0.7
		c0-0.3-0.2-0.5-0.5-0.7c-0.3-0.2-0.9-0.4-1.6-0.6c-0.3-0.1-0.7-0.2-1-0.3c-0.3-0.1-0.6-0.3-0.8-0.4s-0.4-0.3-0.6-0.5
		c-0.1-0.2-0.2-0.4-0.2-0.7c0-0.3,0.1-0.6,0.2-0.8c0.1-0.2,0.3-0.5,0.6-0.6c0.3-0.2,0.6-0.3,0.9-0.4C280.6,7,281,7,281.5,7
		c0.5,0,1.1,0.1,1.5,0.3c0.5,0.2,0.9,0.4,1.3,0.6l-0.6,0.9c-0.3-0.2-0.6-0.4-1-0.5S281.9,8,281.5,8c-0.6,0-1,0.1-1.2,0.3
		s-0.3,0.4-0.3,0.6c0,0.3,0.2,0.5,0.6,0.6c0.4,0.2,0.9,0.3,1.4,0.5c0.9,0.2,1.5,0.5,2,0.8c0.5,0.3,0.7,0.7,0.7,1.3
		c0,0.3-0.1,0.6-0.2,0.8c-0.1,0.3-0.3,0.5-0.6,0.7c-0.3,0.2-0.6,0.3-1,0.4s-0.8,0.2-1.3,0.2c-0.7,0-1.3-0.1-1.8-0.3
		c-0.6-0.2-1.1-0.5-1.5-0.7L278.8,12.2z"/>
</g>
<g class="st0">
	<path class="st3" d="M286.7,7.3h6.1v1h-6.1V7.3z M286.7,10.4h6.1v1h-6.1V10.4z"/>
</g>
<g class="st0">
	<path class="st2" d="M297.7,5c-0.4,0.2-0.8,0.5-1,0.9c-0.3,0.3-0.4,0.8-0.4,1.2c0.1,0,0.2-0.1,0.3-0.1c0.3,0,0.6,0.1,0.8,0.3
		c0.2,0.2,0.3,0.5,0.3,0.8c0,0.4-0.1,0.6-0.3,0.9s-0.5,0.3-0.8,0.3c-0.4,0-0.7-0.2-1-0.5c-0.2-0.3-0.4-0.8-0.4-1.4
		c0-0.7,0.2-1.4,0.6-1.9c0.4-0.6,0.9-1,1.6-1.3L297.7,5z M301,5c-0.4,0.2-0.8,0.5-1,0.9c-0.3,0.3-0.4,0.8-0.4,1.2
		c0.1,0,0.2-0.1,0.3-0.1c0.3,0,0.6,0.1,0.8,0.3c0.2,0.2,0.3,0.5,0.3,0.8c0,0.4-0.1,0.6-0.3,0.9c-0.2,0.2-0.5,0.3-0.8,0.3
		c-0.4,0-0.7-0.2-1-0.5c-0.2-0.3-0.4-0.8-0.4-1.4c0-0.7,0.2-1.4,0.6-1.9c0.4-0.6,0.9-1,1.6-1.3L301,5z"/>
	<path class="st2" d="M303.6,7.2h4.5V14h-1.4V8.3h-3.1V7.2z M307.3,5.9c-0.3,0-0.5-0.1-0.7-0.3c-0.2-0.2-0.3-0.4-0.3-0.7
		s0.1-0.5,0.3-0.7c0.2-0.2,0.4-0.3,0.7-0.3s0.5,0.1,0.7,0.3c0.2,0.2,0.3,0.4,0.3,0.7s-0.1,0.5-0.3,0.7
		C307.8,5.8,307.6,5.9,307.3,5.9z"/>
	<path class="st2" d="M311.9,10.6c0-0.6,0.1-1.1,0.3-1.5c0.2-0.4,0.5-0.8,0.8-1.1c0.4-0.3,0.8-0.5,1.2-0.7c0.5-0.2,1-0.2,1.5-0.2
		c0.6,0,1.1,0.1,1.5,0.3s0.8,0.4,1,0.7l-0.7,0.9c-0.3-0.2-0.6-0.4-0.8-0.5c-0.3-0.1-0.6-0.2-0.9-0.2c-0.4,0-0.7,0.1-1,0.2
		c-0.3,0.1-0.6,0.3-0.8,0.5c-0.2,0.2-0.4,0.5-0.5,0.8c-0.1,0.3-0.2,0.6-0.2,1s0.1,0.7,0.2,1c0.1,0.3,0.3,0.6,0.5,0.8
		c0.2,0.2,0.5,0.4,0.8,0.5c0.3,0.1,0.6,0.2,1,0.2c0.4,0,0.8-0.1,1.1-0.2c0.3-0.2,0.6-0.3,0.9-0.6l0.6,0.9c-0.4,0.3-0.8,0.6-1.3,0.8
		c-0.5,0.2-1,0.3-1.5,0.3c-0.5,0-1-0.1-1.5-0.2c-0.5-0.2-0.9-0.4-1.2-0.7c-0.3-0.3-0.6-0.7-0.8-1.1C312,11.7,311.9,11.2,311.9,10.6z
		"/>
	<path class="st2" d="M320,10.6c0-0.6,0.1-1.1,0.3-1.5c0.2-0.4,0.4-0.8,0.8-1.1c0.3-0.3,0.7-0.5,1.1-0.7c0.4-0.2,0.8-0.2,1.3-0.2
		s0.9,0.1,1.3,0.2c0.4,0.2,0.8,0.4,1.1,0.7c0.3,0.3,0.6,0.7,0.8,1.1c0.2,0.4,0.3,1,0.3,1.5s-0.1,1.1-0.3,1.5
		c-0.2,0.4-0.4,0.8-0.8,1.1c-0.3,0.3-0.7,0.5-1.1,0.7c-0.4,0.2-0.8,0.2-1.3,0.2s-0.9-0.1-1.3-0.2c-0.4-0.2-0.8-0.4-1.1-0.7
		c-0.3-0.3-0.6-0.7-0.8-1.1C320.1,11.7,320,11.2,320,10.6z M321.4,10.6c0,0.7,0.2,1.3,0.5,1.8c0.4,0.4,0.8,0.7,1.5,0.7
		s1.1-0.2,1.5-0.7c0.4-0.4,0.5-1,0.5-1.8s-0.2-1.3-0.5-1.8c-0.4-0.4-0.8-0.7-1.5-0.7s-1.1,0.2-1.5,0.7
		C321.6,9.3,321.4,9.8,321.4,10.6z"/>
	<path class="st2" d="M337.2,7.2h4.5V14h-1.4V8.3h-3.1V7.2z M340.9,5.9c-0.3,0-0.5-0.1-0.7-0.3c-0.2-0.2-0.3-0.4-0.3-0.7
		s0.1-0.5,0.3-0.7c0.2-0.2,0.4-0.3,0.7-0.3s0.5,0.1,0.7,0.3c0.2,0.2,0.3,0.4,0.3,0.7s-0.1,0.5-0.3,0.7
		C341.4,5.8,341.2,5.9,340.9,5.9z"/>
	<path class="st2" d="M345.5,10.6c0-0.6,0.1-1.1,0.3-1.5c0.2-0.4,0.5-0.8,0.8-1.1c0.4-0.3,0.8-0.5,1.2-0.7c0.5-0.2,1-0.2,1.5-0.2
		c0.6,0,1.1,0.1,1.5,0.3s0.8,0.4,1,0.7l-0.7,0.9c-0.3-0.2-0.6-0.4-0.8-0.5c-0.3-0.1-0.6-0.2-0.9-0.2c-0.4,0-0.7,0.1-1,0.2
		c-0.3,0.1-0.6,0.3-0.8,0.5c-0.2,0.2-0.4,0.5-0.5,0.8c-0.1,0.3-0.2,0.6-0.2,1s0.1,0.7,0.2,1c0.1,0.3,0.3,0.6,0.5,0.8
		c0.2,0.2,0.5,0.4,0.8,0.5c0.3,0.1,0.6,0.2,1,0.2c0.4,0,0.8-0.1,1.1-0.2c0.3-0.2,0.6-0.3,0.9-0.6l0.6,0.9c-0.4,0.3-0.8,0.6-1.3,0.8
		c-0.5,0.2-1,0.3-1.5,0.3c-0.5,0-1-0.1-1.5-0.2c-0.5-0.2-0.9-0.4-1.2-0.7c-0.3-0.3-0.6-0.7-0.8-1.1
		C345.6,11.7,345.5,11.2,345.5,10.6z"/>
	<path class="st2" d="M353.6,10.6c0-0.6,0.1-1.1,0.3-1.5c0.2-0.4,0.4-0.8,0.8-1.1c0.3-0.3,0.7-0.5,1.1-0.7c0.4-0.2,0.8-0.2,1.3-0.2
		s0.9,0.1,1.3,0.2c0.4,0.2,0.8,0.4,1.1,0.7c0.3,0.3,0.6,0.7,0.8,1.1c0.2,0.4,0.3,1,0.3,1.5s-0.1,1.1-0.3,1.5
		c-0.2,0.4-0.4,0.8-0.8,1.1c-0.3,0.3-0.7,0.5-1.1,0.7c-0.4,0.2-0.8,0.2-1.3,0.2s-0.9-0.1-1.3-0.2c-0.4-0.2-0.8-0.4-1.1-0.7
		c-0.3-0.3-0.6-0.7-0.8-1.1C353.7,11.7,353.6,11.2,353.6,10.6z M355,10.6c0,0.7,0.2,1.3,0.5,1.8c0.4,0.4,0.8,0.7,1.5,0.7
		s1.1-0.2,1.5-0.7c0.4-0.4,0.5-1,0.5-1.8s-0.2-1.3-0.5-1.8c-0.4-0.4-0.8-0.7-1.5-0.7s-1.1,0.2-1.5,0.7C355.2,9.3,355,9.8,355,10.6z"
		/>
	<path class="st2" d="M362.5,4.8h3c0.5,0,1,0,1.4,0.1c0.4,0.1,0.8,0.2,1.1,0.5c0.3,0.2,0.5,0.5,0.7,0.9s0.3,0.8,0.3,1.3
		c0,0.5-0.1,0.9-0.3,1.3c-0.2,0.4-0.4,0.7-0.7,0.9s-0.7,0.4-1.1,0.5c-0.4,0.1-0.9,0.2-1.4,0.2h-1.6V14h-1.4V4.8z M365.3,9.4
		c0.7,0,1.3-0.1,1.7-0.4c0.4-0.3,0.5-0.7,0.5-1.4s-0.2-1-0.6-1.3c-0.4-0.2-0.9-0.4-1.6-0.4h-1.4v3.4H365.3z"/>
	<path class="st2" d="M370.8,4.1h1.4v2.6l-0.1,1.5c0.3-0.4,0.7-0.7,1.1-0.9c0.4-0.2,0.9-0.4,1.4-0.4c0.8,0,1.4,0.2,1.8,0.7
		c0.4,0.5,0.6,1.2,0.6,2.1V14h-1.4V9.9c0-0.6-0.1-1-0.3-1.3c-0.2-0.3-0.6-0.4-1.1-0.4c-0.4,0-0.7,0.1-1,0.3s-0.6,0.5-1,0.8V14h-1.4
		V4.1z"/>
	<path class="st2" d="M378.8,10.6c0-0.6,0.1-1.1,0.3-1.5c0.2-0.4,0.4-0.8,0.8-1.1c0.3-0.3,0.7-0.5,1.1-0.7c0.4-0.2,0.8-0.2,1.3-0.2
		s0.9,0.1,1.3,0.2c0.4,0.2,0.8,0.4,1.1,0.7c0.3,0.3,0.6,0.7,0.8,1.1c0.2,0.4,0.3,1,0.3,1.5s-0.1,1.1-0.3,1.5
		c-0.2,0.4-0.4,0.8-0.8,1.1c-0.3,0.3-0.7,0.5-1.1,0.7c-0.4,0.2-0.8,0.2-1.3,0.2s-0.9-0.1-1.3-0.2c-0.4-0.2-0.8-0.4-1.1-0.7
		c-0.3-0.3-0.6-0.7-0.8-1.1C378.9,11.7,378.8,11.2,378.8,10.6z M380.2,10.6c0,0.7,0.2,1.3,0.5,1.8c0.4,0.4,0.8,0.7,1.5,0.7
		s1.1-0.2,1.5-0.7c0.4-0.4,0.5-1,0.5-1.8s-0.2-1.3-0.5-1.8c-0.4-0.4-0.8-0.7-1.5-0.7s-1.1,0.2-1.5,0.7
		C380.4,9.3,380.2,9.8,380.2,10.6z"/>
	<path class="st2" d="M387.6,7.2h1.1l0.1,1.1h0.1c0.3-0.4,0.7-0.7,1.1-0.9c0.4-0.2,0.9-0.4,1.4-0.4c0.8,0,1.4,0.2,1.8,0.7
		c0.4,0.5,0.6,1.2,0.6,2.1V14h-1.4V9.9c0-0.6-0.1-1-0.3-1.3c-0.2-0.3-0.6-0.4-1.1-0.4c-0.4,0-0.7,0.1-1,0.3c-0.3,0.2-0.6,0.5-1,0.8
		V14h-1.4V7.2z"/>
	<path class="st2" d="M395.7,10.6c0-0.6,0.1-1.1,0.3-1.5c0.2-0.4,0.5-0.8,0.8-1.1c0.3-0.3,0.7-0.6,1.1-0.7c0.4-0.2,0.9-0.2,1.3-0.2
		c0.5,0,0.9,0.1,1.3,0.2c0.4,0.2,0.7,0.4,1,0.7c0.3,0.3,0.5,0.6,0.6,1c0.1,0.4,0.2,0.8,0.2,1.3c0,0.1,0,0.3,0,0.4s0,0.2,0,0.3h-5.2
		c0,0.7,0.3,1.2,0.7,1.6s1,0.6,1.7,0.6c0.4,0,0.7-0.1,1-0.2s0.6-0.2,0.9-0.4l0.5,0.9c-0.4,0.2-0.8,0.4-1.2,0.6
		c-0.4,0.2-0.9,0.2-1.5,0.2c-0.5,0-1-0.1-1.4-0.2s-0.8-0.4-1.2-0.7c-0.3-0.3-0.6-0.7-0.8-1.1S395.7,11.1,395.7,10.6z M401.1,10
		c0-0.6-0.2-1.1-0.5-1.4c-0.3-0.3-0.8-0.5-1.4-0.5c-0.5,0-1,0.2-1.4,0.5c-0.4,0.3-0.6,0.8-0.7,1.4H401.1z"/>
	<path class="st2" d="M404.5,8.5c0.4-0.2,0.8-0.5,1.1-0.9c0.3-0.4,0.4-0.8,0.4-1.2c-0.1,0-0.2,0.1-0.3,0.1c-0.3,0-0.6-0.1-0.8-0.3
		c-0.2-0.2-0.3-0.5-0.3-0.8c0-0.3,0.1-0.6,0.3-0.8s0.5-0.3,0.8-0.3c0.4,0,0.7,0.2,1,0.5c0.2,0.3,0.4,0.8,0.4,1.4
		c0,0.7-0.2,1.4-0.6,1.9c-0.4,0.6-0.9,1-1.6,1.3L404.5,8.5z M407.8,8.5c0.4-0.2,0.8-0.5,1.1-0.9c0.3-0.4,0.4-0.8,0.4-1.2
		c-0.1,0-0.2,0.1-0.3,0.1c-0.3,0-0.6-0.1-0.8-0.3s-0.3-0.5-0.3-0.8c0-0.3,0.1-0.6,0.3-0.8c0.2-0.2,0.5-0.3,0.8-0.3
		c0.4,0,0.7,0.2,1,0.5c0.2,0.3,0.4,0.8,0.4,1.4c0,0.7-0.2,1.4-0.6,1.9c-0.4,0.6-0.9,1-1.6,1.3L407.8,8.5z"/>
</g>
<g class="st0">
	<path class="st1" d="M418.3,9.9l-5.3,3.5v-1.3l4.1-2.7V9.3L413,6.6V5.3l5.3,3.5V9.9z"/>
	<path class="st1" d="M421.7,8.8l5.3-3.5v1.3l-4.1,2.7v0.1l4.1,2.7v1.3l-5.3-3.5V8.8z"/>
	<path class="st1" d="M430.9,16.2h-1.2l4.6-12.2h1.2L430.9,16.2z"/>
	<path class="st1" d="M438,7.2h4.5V14h-1.4V8.3H438V7.2z M441.7,5.9c-0.3,0-0.5-0.1-0.7-0.3c-0.2-0.2-0.3-0.4-0.3-0.7
		s0.1-0.5,0.3-0.7c0.2-0.2,0.4-0.3,0.7-0.3s0.5,0.1,0.7,0.3c0.2,0.2,0.3,0.4,0.3,0.7s-0.1,0.5-0.3,0.7C442.2,5.8,442,5.9,441.7,5.9z
		"/>
	<path class="st1" d="M451.9,9.9l-5.3,3.5v-1.3l4.1-2.7V9.3l-4.1-2.7V5.3l5.3,3.5V9.9z"/>
	<path class="st1" d="M455.3,8.8l5.3-3.5v1.3l-4.1,2.7v0.1l4.1,2.7v1.3l-5.3-3.5V8.8z"/>
	<path class="st1" d="M464.5,16.2h-1.2l4.6-12.2h1.2L464.5,16.2z"/>
	<path class="st1" d="M471.2,10.6c0-0.6,0.1-1.1,0.3-1.5c0.2-0.4,0.4-0.8,0.7-1.1c0.3-0.3,0.6-0.5,1-0.7c0.4-0.2,0.8-0.3,1.1-0.3
		c0.4,0,0.8,0.1,1.1,0.2s0.6,0.4,0.9,0.6l-0.1-1.2V4.1h1.4V14h-1.1l-0.1-0.8h0c-0.3,0.3-0.6,0.5-1,0.7c-0.4,0.2-0.8,0.3-1.2,0.3
		c-0.4,0-0.9-0.1-1.2-0.2c-0.4-0.2-0.7-0.4-0.9-0.7c-0.3-0.3-0.5-0.7-0.6-1.1C471.2,11.7,471.2,11.2,471.2,10.6z M472.6,10.6
		c0,0.8,0.2,1.4,0.5,1.8s0.8,0.6,1.4,0.6c0.6,0,1.2-0.3,1.7-0.9V8.8c-0.3-0.3-0.5-0.4-0.8-0.5c-0.3-0.1-0.5-0.2-0.8-0.2
		c-0.3,0-0.5,0.1-0.8,0.2c-0.2,0.1-0.4,0.3-0.6,0.5c-0.2,0.2-0.3,0.5-0.4,0.8C472.7,9.9,472.6,10.2,472.6,10.6z"/>
	<path class="st1" d="M480,7.2h4.5V14h-1.4V8.3H480V7.2z M483.7,5.9c-0.3,0-0.5-0.1-0.7-0.3c-0.2-0.2-0.3-0.4-0.3-0.7
		s0.1-0.5,0.3-0.7c0.2-0.2,0.4-0.3,0.7-0.3s0.5,0.1,0.7,0.3c0.2,0.2,0.3,0.4,0.3,0.7s-0.1,0.5-0.3,0.7
		C484.2,5.8,483.9,5.9,483.7,5.9z"/>
	<path class="st1" d="M487.8,7.2h1.4l1.4,3.7c0.1,0.3,0.3,0.7,0.4,1c0.1,0.3,0.2,0.7,0.4,1h0.1c0.1-0.3,0.2-0.7,0.3-1
		c0.1-0.3,0.2-0.7,0.4-1l1.4-3.7h1.3l-2.7,6.8h-1.6L487.8,7.2z"/>
	<path class="st1" d="M502.3,9.9l-5.3,3.5v-1.3l4.1-2.7V9.3L497,6.6V5.3l5.3,3.5V9.9z"/>
</g>
</svg>
