<?xml version="1.0" encoding="utf-8"?>
<!-- Generator: Adobe Illustrator 21.0.2, SVG Export Plug-In . SVG Version: 6.00 Build 0)  -->
<svg version="1.1" id="Capa_1" xmlns="http://www.w3.org/2000/svg" xmlns:xlink="http://www.w3.org/1999/xlink" x="0px" y="0px"
	 viewBox="0 0 440 22" style="enable-background:new 0 0 440 22;" xml:space="preserve">
<style type="text/css">
	.st0{enable-background:new    ;}
	.st1{fill:#96CBF7;}
	.st2{fill:#C6C5FE;}
	.st3{fill:#A8FF60;}
</style>
<g class="st0">
	<path class="st1" d="M74.1,10.7l6.4-4.3V8l-5,3.3v0.1l5,3.3v1.6L74.1,12V10.7z"/>
	<path class="st1" d="M83.8,8.7h5.4V17h-1.7v-7h-3.7V8.7z M88.2,7.1c-0.4,0-0.7-0.1-0.9-0.3c-0.2-0.2-0.4-0.5-0.4-0.9
		c0-0.4,0.1-0.7,0.4-0.9c0.2-0.2,0.5-0.3,0.9-0.3c0.4,0,0.7,0.1,0.9,0.3c0.2,0.2,0.4,0.5,0.4,0.9c0,0.4-0.1,0.7-0.4,0.9
		C88.9,7,88.6,7.1,88.2,7.1z"/>
	<path class="st1" d="M104,12.9c0-0.7,0.1-1.3,0.4-1.9s0.6-1,1-1.4s0.9-0.7,1.5-0.8c0.6-0.2,1.2-0.3,1.8-0.3c0.7,0,1.3,0.1,1.8,0.3
		c0.5,0.2,0.9,0.5,1.3,0.8l-0.8,1.1c-0.3-0.3-0.7-0.5-1-0.6c-0.4-0.2-0.7-0.2-1.1-0.2c-0.4,0-0.8,0.1-1.2,0.2s-0.7,0.3-1,0.6
		c-0.3,0.3-0.5,0.6-0.6,0.9s-0.2,0.8-0.2,1.2c0,0.4,0.1,0.8,0.2,1.2s0.3,0.7,0.6,0.9s0.6,0.5,0.9,0.6c0.4,0.1,0.8,0.2,1.2,0.2
		c0.5,0,1-0.1,1.4-0.3c0.4-0.2,0.8-0.4,1.1-0.7l0.7,1.1c-0.5,0.4-1,0.7-1.6,0.9c-0.6,0.2-1.2,0.3-1.8,0.3c-0.6,0-1.2-0.1-1.8-0.3
		c-0.6-0.2-1-0.5-1.5-0.8c-0.4-0.4-0.7-0.8-1-1.4C104.1,14.2,104,13.5,104,12.9z"/>
	<path class="st1" d="M114.2,4.9h4.4v9.2c0,0.6,0.1,1,0.4,1.2s0.7,0.4,1.1,0.4c0.2,0,0.5,0,0.7-0.1c0.2-0.1,0.5-0.1,0.8-0.3l0.4,1.3
		c-0.2,0.1-0.4,0.1-0.6,0.2s-0.4,0.1-0.5,0.1c-0.2,0-0.4,0.1-0.6,0.1s-0.4,0-0.7,0c-0.9,0-1.6-0.3-2.1-0.8c-0.5-0.5-0.7-1.3-0.7-2.3
		V6.3h-2.7V4.9z"/>
	<path class="st1" d="M124.4,14.8c0-0.5,0.1-0.9,0.3-1.2c0.2-0.4,0.6-0.7,1-0.9c0.5-0.2,1.1-0.5,1.8-0.6c0.7-0.2,1.6-0.3,2.7-0.4
		c0-0.5-0.2-0.9-0.5-1.3c-0.3-0.4-0.8-0.5-1.6-0.5c-0.5,0-1,0.1-1.5,0.3c-0.5,0.2-0.9,0.4-1.3,0.6l-0.6-1.1c0.2-0.1,0.5-0.3,0.8-0.4
		s0.6-0.3,0.9-0.4s0.7-0.2,1-0.3s0.7-0.1,1.1-0.1c1.2,0,2,0.3,2.6,0.9c0.6,0.6,0.9,1.5,0.9,2.6v5h-1.4l-0.1-1.1h-0.1
		c-0.4,0.3-0.9,0.6-1.5,0.9c-0.5,0.3-1.1,0.4-1.7,0.4c-0.4,0-0.8-0.1-1.1-0.2s-0.6-0.3-0.9-0.5c-0.2-0.2-0.4-0.5-0.6-0.8
		S124.4,15.2,124.4,14.8z M126,14.7c0,0.4,0.2,0.7,0.5,0.9c0.3,0.2,0.7,0.3,1.2,0.3c0.4,0,0.9-0.1,1.3-0.3s0.9-0.5,1.3-0.8v-2
		c-0.8,0.1-1.5,0.2-2,0.3c-0.5,0.1-1,0.2-1.3,0.4c-0.3,0.2-0.6,0.3-0.7,0.6C126.1,14.2,126,14.4,126,14.7z"/>
	<path class="st1" d="M135.2,14.8c0.5,0.3,1,0.6,1.5,0.8c0.5,0.2,1.1,0.3,1.8,0.3c0.7,0,1.2-0.1,1.6-0.3c0.3-0.2,0.5-0.5,0.5-0.8
		c0-0.3-0.2-0.6-0.6-0.8c-0.4-0.2-1.1-0.5-2-0.7c-0.4-0.1-0.8-0.2-1.2-0.4s-0.7-0.3-1-0.5s-0.5-0.4-0.7-0.7
		c-0.2-0.2-0.3-0.5-0.3-0.8c0-0.4,0.1-0.7,0.2-1c0.2-0.3,0.4-0.5,0.7-0.8c0.3-0.2,0.7-0.4,1.1-0.5c0.4-0.1,1-0.2,1.5-0.2
		c0.7,0,1.3,0.1,1.9,0.3c0.6,0.2,1.1,0.5,1.5,0.8l-0.8,1.1c-0.4-0.2-0.8-0.5-1.2-0.6c-0.4-0.2-0.9-0.2-1.4-0.2
		c-0.7,0-1.2,0.1-1.5,0.3c-0.3,0.2-0.4,0.5-0.4,0.7c0,0.3,0.2,0.6,0.7,0.8c0.5,0.2,1,0.4,1.8,0.6c1,0.3,1.8,0.6,2.4,0.9
		c0.6,0.4,0.8,0.9,0.8,1.5c0,0.4-0.1,0.7-0.3,1c-0.2,0.3-0.4,0.6-0.7,0.8s-0.7,0.4-1.2,0.5c-0.5,0.1-1,0.2-1.6,0.2
		c-0.8,0-1.5-0.1-2.2-0.4c-0.7-0.3-1.3-0.6-1.8-0.9L135.2,14.8z"/>
	<path class="st1" d="M145.4,14.8c0.5,0.3,1,0.6,1.5,0.8s1.1,0.3,1.8,0.3c0.7,0,1.2-0.1,1.6-0.3c0.3-0.2,0.5-0.5,0.5-0.8
		c0-0.3-0.2-0.6-0.6-0.8c-0.4-0.2-1.1-0.5-2-0.7c-0.4-0.1-0.8-0.2-1.2-0.4c-0.4-0.1-0.7-0.3-1-0.5s-0.5-0.4-0.7-0.7
		c-0.2-0.2-0.3-0.5-0.3-0.8c0-0.4,0.1-0.7,0.2-1s0.4-0.5,0.7-0.8c0.3-0.2,0.7-0.4,1.1-0.5c0.4-0.1,1-0.2,1.5-0.2
		c0.7,0,1.3,0.1,1.9,0.3s1.1,0.5,1.5,0.8l-0.8,1.1c-0.4-0.2-0.8-0.5-1.2-0.6c-0.4-0.2-0.9-0.2-1.4-0.2c-0.7,0-1.2,0.1-1.5,0.3
		s-0.4,0.5-0.4,0.7c0,0.3,0.2,0.6,0.7,0.8s1,0.4,1.8,0.6c1,0.3,1.8,0.6,2.4,0.9c0.6,0.4,0.8,0.9,0.8,1.5c0,0.4-0.1,0.7-0.3,1
		c-0.2,0.3-0.4,0.6-0.7,0.8c-0.3,0.2-0.7,0.4-1.2,0.5c-0.5,0.1-1,0.2-1.6,0.2c-0.8,0-1.5-0.1-2.2-0.4c-0.7-0.3-1.3-0.6-1.8-0.9
		L145.4,14.8z"/>
</g>
<g class="st0">
	<path class="st2" d="M155.1,8.9h7.4v1.2h-7.4V8.9z M155.1,12.6h7.4v1.2h-7.4V12.6z"/>
</g>
<g class="st0">
	<path class="st3" d="M168.4,6.1c-0.5,0.3-1,0.7-1.3,1.1c-0.3,0.4-0.5,0.9-0.5,1.5c0.1-0.1,0.3-0.1,0.4-0.1c0.4,0,0.7,0.1,0.9,0.4
		c0.2,0.2,0.4,0.6,0.4,0.9c0,0.4-0.1,0.8-0.4,1c-0.2,0.3-0.6,0.4-1,0.4c-0.5,0-0.9-0.2-1.2-0.6c-0.3-0.4-0.5-0.9-0.5-1.6
		c0-0.9,0.2-1.6,0.7-2.3c0.4-0.7,1.1-1.2,1.9-1.6L168.4,6.1z M172.4,6.1c-0.5,0.3-1,0.7-1.3,1.1c-0.3,0.4-0.5,0.9-0.5,1.5
		c0.1-0.1,0.3-0.1,0.4-0.1c0.4,0,0.7,0.1,0.9,0.4c0.2,0.2,0.4,0.6,0.4,0.9c0,0.4-0.1,0.8-0.4,1c-0.2,0.3-0.6,0.4-1,0.4
		c-0.5,0-0.9-0.2-1.2-0.6c-0.3-0.4-0.5-0.9-0.5-1.6c0-0.9,0.2-1.6,0.7-2.3c0.4-0.7,1.1-1.2,1.9-1.6L172.4,6.1z"/>
	<path class="st3" d="M175.6,8.7h5.4V17h-1.7v-7h-3.7V8.7z M180,7.1c-0.4,0-0.7-0.1-0.9-0.3c-0.2-0.2-0.4-0.5-0.4-0.9
		c0-0.4,0.1-0.7,0.4-0.9c0.2-0.2,0.5-0.3,0.9-0.3s0.7,0.1,0.9,0.3c0.2,0.2,0.4,0.5,0.4,0.9c0,0.4-0.1,0.7-0.4,0.9
		C180.7,7,180.4,7.1,180,7.1z"/>
	<path class="st3" d="M185.6,12.9c0-0.7,0.1-1.3,0.4-1.9c0.2-0.5,0.6-1,1-1.4s0.9-0.7,1.5-0.8c0.6-0.2,1.2-0.3,1.8-0.3
		c0.7,0,1.3,0.1,1.8,0.3c0.5,0.2,0.9,0.5,1.3,0.8l-0.8,1.1c-0.3-0.3-0.7-0.5-1-0.6c-0.4-0.2-0.7-0.2-1.1-0.2c-0.4,0-0.8,0.1-1.2,0.2
		s-0.7,0.3-1,0.6c-0.3,0.3-0.5,0.6-0.6,0.9c-0.1,0.4-0.2,0.8-0.2,1.2c0,0.4,0.1,0.8,0.2,1.2s0.3,0.7,0.6,0.9
		c0.3,0.3,0.6,0.5,0.9,0.6s0.8,0.2,1.2,0.2c0.5,0,1-0.1,1.4-0.3c0.4-0.2,0.8-0.4,1.1-0.7l0.7,1.1c-0.5,0.4-1,0.7-1.6,0.9
		c-0.6,0.2-1.2,0.3-1.8,0.3c-0.6,0-1.2-0.1-1.8-0.3s-1-0.5-1.5-0.8c-0.4-0.4-0.7-0.8-1-1.4C185.7,14.2,185.6,13.5,185.6,12.9z"/>
	<path class="st3" d="M195.4,12.9c0-0.7,0.1-1.3,0.3-1.9c0.2-0.5,0.5-1,0.9-1.4s0.8-0.7,1.3-0.8c0.5-0.2,1-0.3,1.6-0.3
		s1.1,0.1,1.6,0.3c0.5,0.2,0.9,0.5,1.3,0.8c0.4,0.4,0.7,0.8,0.9,1.4c0.2,0.5,0.3,1.2,0.3,1.9c0,0.7-0.1,1.3-0.3,1.8
		c-0.2,0.5-0.5,1-0.9,1.4c-0.4,0.4-0.8,0.7-1.3,0.8c-0.5,0.2-1,0.3-1.6,0.3s-1.1-0.1-1.6-0.3c-0.5-0.2-0.9-0.5-1.3-0.8
		s-0.7-0.8-0.9-1.4C195.6,14.2,195.4,13.5,195.4,12.9z M197.2,12.9c0,0.9,0.2,1.6,0.6,2.2s1,0.8,1.8,0.8s1.3-0.3,1.8-0.8
		c0.4-0.5,0.6-1.3,0.6-2.2c0-0.9-0.2-1.6-0.6-2.2c-0.4-0.5-1-0.8-1.8-0.8s-1.3,0.3-1.8,0.8S197.2,12,197.2,12.9z"/>
	<path class="st3" d="M216.4,8.7h5.4V17h-1.7v-7h-3.7V8.7z M220.8,7.1c-0.4,0-0.7-0.1-0.9-0.3c-0.2-0.2-0.4-0.5-0.4-0.9
		c0-0.4,0.1-0.7,0.4-0.9c0.2-0.2,0.5-0.3,0.9-0.3s0.7,0.1,0.9,0.3c0.2,0.2,0.4,0.5,0.4,0.9c0,0.4-0.1,0.7-0.4,0.9
		C221.5,7,221.2,7.1,220.8,7.1z"/>
	<path class="st3" d="M226.4,12.9c0-0.7,0.1-1.3,0.4-1.9s0.6-1,1-1.4c0.4-0.4,0.9-0.7,1.5-0.8c0.6-0.2,1.2-0.3,1.8-0.3
		c0.7,0,1.3,0.1,1.8,0.3c0.5,0.2,0.9,0.5,1.3,0.8l-0.8,1.1c-0.3-0.3-0.7-0.5-1-0.6s-0.7-0.2-1.1-0.2c-0.4,0-0.8,0.1-1.2,0.2
		s-0.7,0.3-1,0.6c-0.3,0.3-0.5,0.6-0.6,0.9c-0.1,0.4-0.2,0.8-0.2,1.2c0,0.4,0.1,0.8,0.2,1.2s0.3,0.7,0.6,0.9
		c0.3,0.3,0.6,0.5,0.9,0.6s0.8,0.2,1.2,0.2c0.5,0,1-0.1,1.4-0.3s0.8-0.4,1.1-0.7l0.7,1.1c-0.5,0.4-1,0.7-1.6,0.9
		c-0.6,0.2-1.2,0.3-1.8,0.3c-0.6,0-1.2-0.1-1.8-0.3s-1-0.5-1.5-0.8s-0.7-0.8-1-1.4C226.5,14.2,226.4,13.5,226.4,12.9z"/>
	<path class="st3" d="M236.2,12.9c0-0.7,0.1-1.3,0.3-1.9s0.5-1,0.9-1.4c0.4-0.4,0.8-0.7,1.3-0.8c0.5-0.2,1-0.3,1.6-0.3
		s1.1,0.1,1.6,0.3c0.5,0.2,0.9,0.5,1.3,0.8c0.4,0.4,0.7,0.8,0.9,1.4c0.2,0.5,0.3,1.2,0.3,1.9c0,0.7-0.1,1.3-0.3,1.8
		c-0.2,0.5-0.5,1-0.9,1.4c-0.4,0.4-0.8,0.7-1.3,0.8c-0.5,0.2-1,0.3-1.6,0.3s-1.1-0.1-1.6-0.3c-0.5-0.2-0.9-0.5-1.3-0.8
		c-0.4-0.4-0.7-0.8-0.9-1.4C236.4,14.2,236.2,13.5,236.2,12.9z M238,12.9c0,0.9,0.2,1.6,0.6,2.2c0.4,0.5,1,0.8,1.8,0.8
		s1.3-0.3,1.8-0.8s0.6-1.3,0.6-2.2c0-0.9-0.2-1.6-0.6-2.2s-1-0.8-1.8-0.8s-1.3,0.3-1.8,0.8C238.2,11.2,238,12,238,12.9z"/>
	<path class="st3" d="M247.1,5.9h3.6c0.6,0,1.2,0.1,1.7,0.2c0.5,0.1,1,0.3,1.3,0.6c0.4,0.3,0.7,0.6,0.9,1c0.2,0.4,0.3,0.9,0.3,1.6
		c0,0.6-0.1,1.1-0.3,1.6c-0.2,0.4-0.5,0.8-0.9,1.1s-0.8,0.5-1.3,0.6c-0.5,0.1-1.1,0.2-1.7,0.2h-1.9V17h-1.7V5.9z M250.5,11.4
		c0.9,0,1.6-0.2,2-0.5c0.4-0.3,0.7-0.9,0.7-1.6s-0.2-1.3-0.7-1.6c-0.4-0.3-1.1-0.4-2-0.4h-1.7v4.1H250.5z"/>
	<path class="st3" d="M257.2,4.9h1.7v3.2l-0.1,1.9c0.4-0.4,0.9-0.8,1.4-1.1c0.5-0.3,1.1-0.4,1.7-0.4c1,0,1.7,0.3,2.1,0.9
		c0.5,0.6,0.7,1.4,0.7,2.5V17H263v-4.9c0-0.7-0.1-1.3-0.4-1.6s-0.7-0.5-1.3-0.5c-0.4,0-0.8,0.1-1.2,0.3c-0.4,0.2-0.7,0.6-1.2,1V17
		h-1.7V4.9z"/>
	<path class="st3" d="M266.8,12.9c0-0.7,0.1-1.3,0.3-1.9s0.5-1,0.9-1.4c0.4-0.4,0.8-0.7,1.3-0.8c0.5-0.2,1-0.3,1.6-0.3
		s1.1,0.1,1.6,0.3c0.5,0.2,0.9,0.5,1.3,0.8c0.4,0.4,0.7,0.8,0.9,1.4c0.2,0.5,0.3,1.2,0.3,1.9c0,0.7-0.1,1.3-0.3,1.8
		c-0.2,0.5-0.5,1-0.9,1.4c-0.4,0.4-0.8,0.7-1.3,0.8c-0.5,0.2-1,0.3-1.6,0.3s-1.1-0.1-1.6-0.3c-0.5-0.2-0.9-0.5-1.3-0.8
		c-0.4-0.4-0.7-0.8-0.9-1.4C267,14.2,266.8,13.5,266.8,12.9z M268.6,12.9c0,0.9,0.2,1.6,0.6,2.2c0.4,0.5,1,0.8,1.8,0.8
		s1.3-0.3,1.8-0.8s0.6-1.3,0.6-2.2c0-0.9-0.2-1.6-0.6-2.2s-1-0.8-1.8-0.8s-1.3,0.3-1.8,0.8C268.8,11.2,268.6,12,268.6,12.9z"/>
	<path class="st3" d="M277.6,8.7h1.4l0.1,1.3h0.1c0.4-0.4,0.9-0.8,1.4-1.1c0.5-0.3,1.1-0.5,1.7-0.5c1,0,1.7,0.3,2.1,0.9
		c0.5,0.6,0.7,1.4,0.7,2.5V17h-1.7v-4.9c0-0.7-0.1-1.3-0.4-1.6s-0.7-0.5-1.3-0.5c-0.4,0-0.8,0.1-1.2,0.3s-0.7,0.6-1.2,1V17h-1.7V8.7
		z"/>
	<path class="st3" d="M287.4,12.9c0-0.7,0.1-1.3,0.4-1.8s0.6-1,1-1.4s0.9-0.7,1.4-0.9c0.5-0.2,1-0.3,1.6-0.3c0.6,0,1.2,0.1,1.6,0.3
		c0.5,0.2,0.9,0.5,1.2,0.8c0.3,0.3,0.6,0.8,0.7,1.2c0.2,0.5,0.3,1,0.3,1.6c0,0.2,0,0.3,0,0.5c0,0.2,0,0.3-0.1,0.4h-6.3
		c0.1,0.8,0.4,1.5,0.9,1.9s1.2,0.7,2.1,0.7c0.5,0,0.9-0.1,1.3-0.2c0.4-0.1,0.8-0.3,1.1-0.5l0.6,1.1c-0.4,0.3-0.9,0.5-1.5,0.7
		c-0.5,0.2-1.1,0.3-1.8,0.3c-0.6,0-1.2-0.1-1.8-0.3c-0.6-0.2-1-0.5-1.4-0.9s-0.7-0.8-1-1.4C287.5,14.1,287.4,13.5,287.4,12.9z
		 M293.9,12.1c0-0.7-0.2-1.3-0.6-1.7c-0.4-0.4-0.9-0.6-1.6-0.6c-0.6,0-1.2,0.2-1.7,0.6s-0.8,1-0.9,1.7H293.9z"/>
	<path class="st3" d="M298.1,10.4c0.5-0.3,1-0.7,1.3-1.1c0.3-0.4,0.5-0.9,0.5-1.5c-0.1,0.1-0.3,0.1-0.4,0.1c-0.4,0-0.7-0.1-0.9-0.4
		c-0.2-0.2-0.4-0.6-0.4-1c0-0.4,0.1-0.8,0.4-1c0.2-0.3,0.6-0.4,1-0.4c0.5,0,0.9,0.2,1.2,0.6c0.3,0.4,0.5,0.9,0.5,1.6
		c0,0.9-0.2,1.6-0.7,2.3c-0.4,0.7-1.1,1.2-1.9,1.6L298.1,10.4z M302.1,10.4c0.5-0.3,1-0.7,1.3-1.1c0.3-0.4,0.5-0.9,0.5-1.5
		c-0.1,0.1-0.3,0.1-0.4,0.1c-0.4,0-0.7-0.1-0.9-0.4s-0.4-0.6-0.4-1c0-0.4,0.1-0.8,0.4-1c0.2-0.3,0.6-0.4,1-0.4
		c0.5,0,0.9,0.2,1.2,0.6c0.3,0.4,0.5,0.9,0.5,1.6c0,0.9-0.2,1.6-0.7,2.3c-0.4,0.7-1.1,1.2-1.9,1.6L302.1,10.4z"/>
</g>
<g class="st0">
	<path class="st1" d="M314.9,12l-6.4,4.3v-1.6l5-3.3v-0.1l-5-3.3V6.5l6.4,4.3V12z"/>
	<path class="st1" d="M318.9,10.7l6.4-4.3V8l-5,3.3v0.1l5,3.3v1.6l-6.4-4.3V10.7z"/>
	<path class="st1" d="M330.1,19.7h-1.5l5.6-14.8h1.5L330.1,19.7z"/>
	<path class="st1" d="M338.8,8.7h5.4V17h-1.7v-7h-3.7V8.7z M343.2,7.1c-0.4,0-0.7-0.1-0.9-0.3c-0.2-0.2-0.4-0.5-0.4-0.9
		c0-0.4,0.1-0.7,0.4-0.9c0.2-0.2,0.5-0.3,0.9-0.3c0.4,0,0.7,0.1,0.9,0.3c0.2,0.2,0.4,0.5,0.4,0.9c0,0.4-0.1,0.7-0.4,0.9
		C343.9,7,343.6,7.1,343.2,7.1z"/>
	<path class="st1" d="M355.7,12l-6.4,4.3v-1.6l5-3.3v-0.1l-5-3.3V6.5l6.4,4.3V12z"/>
</g>
</svg>
