<svg xmlns="http://www.w3.org/2000/svg" viewBox="3335 227 101 128">
  <defs>
    <style>
      .cls-1 {
        fill: #191b1d;
      }

      .cls-2 {
        fill: none;
        stroke: #191b1d;
        stroke-width: 7px;
      }
    </style>
  </defs>
  <g id="Group_58" data-name="Group 58" transform="translate(2038)">
    <path id="Union_1" data-name="Union 1" class="cls-1" d="M-1993.189,90.856V63.283h10.8q4.914,0,7.488,2.437a8.624,8.624,0,0,1,2.574,6.572,9.048,9.048,0,0,1-1.151,4.583,7.977,7.977,0,0,1-3.412,3.158,12.013,12.013,0,0,1-5.5,1.151h-4.135v9.672Zm6.668-15.016h3.394q4.016,0,4.017-3.549,0-3.627-4.017-3.627h-3.394Zm-17.94,15.016V63.283h6.669V90.856Zm-23.673,0V85.785l11.973-17.159h-11.817V63.283h19.345v5.07l-12.091,17.121h12.168v5.383Zm-9.868,0V84.187h6.9v6.669Zm54.168-61.274h-1.83V0l29.581,29.582Z" transform="translate(3351.131 231.145)"/>
    <path id="Path_12" data-name="Path 12" class="cls-2" d="M5,3.5H70.972C71.505,4.188,97.5,30.616,97.5,30.616V123a1.5,1.5,0,0,1-1.5,1.5H5A1.5,1.5,0,0,1,3.5,123V5A1.5,1.5,0,0,1,5,3.5Z" transform="translate(1297 227)"/>
  </g>
</svg>
